STARTFONT 2.1
COMMENT
COMMENT Converted from OpenType font "..\ttf\ITC Avant Garde Gothic Medium.otf" by "otf2bdf.exe 3.0".
COMMENT
FONT -FreeType-ITC Avant Garde Gothic-Medium-R-Normal--42-300-100-100-P-193-ISO10646-1
SIZE 30 100 100
FONTBOUNDINGBOX 51 52 -3 -11
STARTPROPERTIES 19
FOUNDRY "FreeType"
FAMILY_NAME "ITC Avant Garde Gothic"
WEIGHT_NAME "Medium"
SLANT "R"
SETWIDTH_NAME "Normal"
ADD_STYLE_NAME ""
PIXEL_SIZE 42
POINT_SIZE 300
RESOLUTION_X 100
RESOLUTION_Y 100
SPACING "P"
AVERAGE_WIDTH 193
CHARSET_REGISTRY "ISO10646"
CHARSET_ENCODING "1"
FONT_ASCENT 41
FONT_DESCENT 10
COPYRIGHT "Copyright (c) 1991 Adobe Systems Incorporated.  All Rights Reserved.ITC Avant Garde Gothic is a registered trademark of International Typeface Corporation."
_OTF_FONTFILE "..\ttf\ITC Avant Garde Gothic Medium.otf"
_OTF_PSNAME "AvantGarde-Medium"
ENDPROPERTIES
CHARS 228
STARTCHAR 0020
ENCODING 32
SWIDTH 288 0
DWIDTH 12 0
BBX 0 0 0 0
BITMAP
ENDCHAR
STARTCHAR 0021
ENCODING 33
SWIDTH 288 0
DWIDTH 12 0
BBX 4 31 4 0
BITMAP
F0
F0
F0
F0
F0
F0
F0
F0
F0
F0
F0
F0
F0
F0
F0
F0
F0
F0
F0
F0
F0
F0
F0
00
00
00
F0
F0
F0
F0
F0
ENDCHAR
STARTCHAR 0022
ENCODING 34
SWIDTH 336 0
DWIDTH 14 0
BBX 11 12 1 18
BITMAP
F1E0
F1E0
F1E0
F1E0
F1E0
F1E0
F1E0
F1E0
F1E0
F1E0
F1E0
F1E0
ENDCHAR
STARTCHAR 0023
ENCODING 35
SWIDTH 552 0
DWIDTH 23 0
BBX 20 29 1 1
BITMAP
03C3C0
03C3C0
03C380
03C380
038380
038780
038780
078780
7FFFF0
7FFFF0
7FFFF0
7FFFF0
070700
070F00
070F00
0F0F00
0F0F00
FFFFE0
FFFFE0
FFFFE0
FFFFE0
0E1E00
1E1E00
1E1E00
1E1E00
1E1C00
1C1C00
1C1C00
1C3C00
ENDCHAR
STARTCHAR 0024
ENCODING 36
SWIDTH 552 0
DWIDTH 23 0
BBX 17 37 3 -3
BITMAP
01E000
01E000
01E000
01E000
01E000
07FC00
1FFE00
3FFF00
3E1F00
7C0F80
780780
780780
780000
780000
7C0000
3F0000
3FF000
1FFC00
07FE00
00FF00
001F00
000F80
000780
000780
F00780
F00780
F80780
780F80
7E1F00
3FFF00
1FFE00
0FFC00
01E000
01E000
01E000
01E000
01E000
ENDCHAR
STARTCHAR 0025
ENCODING 37
SWIDTH 840 0
DWIDTH 35 0
BBX 30 33 2 -1
BITMAP
07C00100
1FF00300
3FF80600
7FFC0600
7C7C0C00
F83E0C00
F01E1800
F01E1800
F01E3000
F01E7000
F83E6000
7C7CE000
7FFCC000
3FF98000
1FF18000
07C30000
00030000
00060F80
000E3FE0
000C7FF0
001CFFF8
0018F8F8
0039F07C
0031E03C
0071E03C
0061E03C
00E1E03C
00C1F07C
0180F8F8
0380FFF8
03007FF0
07003FE0
00000F80
ENDCHAR
STARTCHAR 0026
ENCODING 38
SWIDTH 696 0
DWIDTH 29 0
BBX 26 32 1 -1
BITMAP
00F80000
03FE0000
07FF0000
0FFF8000
0F8F8000
1F07C000
1E03C000
1E03C000
1E03C000
1E03C000
1F07C000
0F9F8000
0FFF8F80
07FF0F00
07FC1F00
1FFC1F00
3FFC3E00
3E7E3E00
7C3F7C00
781FFC00
F00FF800
F007F800
F003F000
F001F800
F001FC00
F803FE00
7807FF00
7E0F9F80
3FFF8FC0
1FFF07C0
0FFC0380
03F00100
ENDCHAR
STARTCHAR 0027
ENCODING 39
SWIDTH 216 0
DWIDTH 9 0
BBX 4 12 2 18
BITMAP
F0
F0
F0
F0
F0
F0
F0
F0
F0
F0
F0
F0
ENDCHAR
STARTCHAR 0028
ENCODING 40
SWIDTH 408 0
DWIDTH 17 0
BBX 12 42 2 -11
BITMAP
0010
0070
00F0
01F0
03F0
07F0
07C0
0F80
1F80
1F00
3E00
3C00
3C00
7800
7800
7800
F000
F000
F000
F000
F000
F000
F000
F000
F000
F800
7800
7800
7C00
3C00
3E00
3E00
1F00
1F80
0FC0
07E0
07F0
03F0
01F0
00F0
0030
0010
ENDCHAR
STARTCHAR 0029
ENCODING 41
SWIDTH 408 0
DWIDTH 17 0
BBX 12 42 2 -10
BITMAP
C000
E000
F000
F800
FC00
7E00
3F00
1F00
0F80
0F80
07C0
03C0
03E0
01E0
01E0
01E0
00F0
00F0
00F0
00F0
00F0
00F0
00F0
00F0
00F0
00F0
01E0
01E0
01E0
03C0
07C0
07C0
0F80
1F00
3F00
7E00
FC00
FC00
F800
E000
C000
8000
ENDCHAR
STARTCHAR 002A
ENCODING 42
SWIDTH 576 0
DWIDTH 24 0
BBX 16 15 4 15
BITMAP
01C0
01C0
01C0
01C0
41C2
FDDF
FFFF
3FFC
07E0
07E0
0F70
0E70
1E38
3C3C
0810
ENDCHAR
STARTCHAR 002B
ENCODING 43
SWIDTH 600 0
DWIDTH 25 0
BBX 20 20 2 1
BITMAP
00F000
00F000
00F000
00F000
00F000
00F000
00F000
00F000
FFFFF0
FFFFF0
FFFFF0
FFFFF0
00F000
00F000
00F000
00F000
00F000
00F000
00F000
00F000
ENDCHAR
STARTCHAR 002C
ENCODING 44
SWIDTH 288 0
DWIDTH 12 0
BBX 4 10 4 -5
BITMAP
F0
F0
F0
F0
F0
70
70
F0
E0
C0
ENDCHAR
STARTCHAR 002D
ENCODING 45
SWIDTH 288 0
DWIDTH 12 0
BBX 11 4 0 10
BITMAP
FFE0
FFE0
FFE0
FFE0
ENDCHAR
STARTCHAR 002E
ENCODING 46
SWIDTH 288 0
DWIDTH 12 0
BBX 4 5 4 1
BITMAP
F0
F0
F0
F0
F0
ENDCHAR
STARTCHAR 002F
ENCODING 47
SWIDTH 504 0
DWIDTH 21 0
BBX 16 35 2 -4
BITMAP
001F
001E
003E
003E
003C
007C
007C
0078
00F8
00F8
00F0
01F0
01F0
01E0
03E0
03E0
03C0
07C0
07C0
0780
0F80
0F80
0F00
1F00
1F00
1E00
3E00
3E00
3C00
7C00
7C00
7800
F800
F800
F000
ENDCHAR
STARTCHAR 0030
ENCODING 48
SWIDTH 552 0
DWIDTH 23 0
BBX 19 32 2 -1
BITMAP
01F800
07FE00
1FFF00
3FFF80
3E0FC0
7C07C0
7803C0
F001E0
F001E0
F001E0
F001E0
F001E0
F001E0
F001E0
F001E0
F001E0
F001E0
F001E0
F001E0
F001E0
F001E0
F001E0
F001E0
F001E0
F001E0
7803E0
7C07C0
7E0FC0
3FFF80
1FFF00
0FFE00
03F000
ENDCHAR
STARTCHAR 0031
ENCODING 49
SWIDTH 552 0
DWIDTH 23 0
BBX 8 31 7 0
BITMAP
FF
FF
FF
FF
0F
0F
0F
0F
0F
0F
0F
0F
0F
0F
0F
0F
0F
0F
0F
0F
0F
0F
0F
0F
0F
0F
0F
0F
0F
0F
0F
ENDCHAR
STARTCHAR 0032
ENCODING 50
SWIDTH 552 0
DWIDTH 23 0
BBX 18 31 2 0
BITMAP
03F000
0FFC00
1FFE00
3FFF00
3E1F80
7C0F80
7807C0
F003C0
F003C0
F003C0
F003C0
0003C0
0007C0
000780
000F80
001F00
003F00
007E00
00FC00
01F800
03F000
03E000
07C000
0F8000
1F0000
3E0000
7E0000
FFFFC0
FFFFC0
FFFFC0
FFFFC0
ENDCHAR
STARTCHAR 0033
ENCODING 51
SWIDTH 552 0
DWIDTH 23 0
BBX 19 32 1 -1
BITMAP
01F800
07FE00
0FFF00
1FFF80
1F0F80
3C07C0
3C03C0
3C03C0
0003C0
0003C0
0007C0
000F80
00FF80
00FF00
00FF00
00FF80
000FC0
0007C0
0003E0
0001E0
0001E0
0001E0
F001E0
F001E0
F001E0
7803C0
7C07C0
3E0FC0
3FFF80
1FFF00
0FFE00
01F800
ENDCHAR
STARTCHAR 0034
ENCODING 52
SWIDTH 552 0
DWIDTH 23 0
BBX 21 31 0 0
BITMAP
0003C0
0007C0
000FC0
000FC0
001FC0
001FC0
003FC0
007FC0
007BC0
00FBC0
01F3C0
01E3C0
03E3C0
07C3C0
07C3C0
0F83C0
0F03C0
1F03C0
3E03C0
3E03C0
7C03C0
F803C0
FFFFF8
FFFFF8
FFFFF8
FFFFF8
0003C0
0003C0
0003C0
0003C0
0003C0
ENDCHAR
STARTCHAR 0035
ENCODING 53
SWIDTH 552 0
DWIDTH 23 0
BBX 20 32 1 -1
BITMAP
0FFF80
0FFF80
1FFF80
1FFF80
1E0000
1E0000
1E0000
1E0000
1E0000
3C0000
3DF800
3FFF00
3FFF80
3FFFC0
3F0FC0
7C03E0
3801E0
0001F0
0000F0
0000F0
0000F0
0000F0
F000F0
F800F0
F801F0
7C01E0
7C03E0
3F0FC0
1FFF80
1FFF00
07FE00
01F800
ENDCHAR
STARTCHAR 0036
ENCODING 54
SWIDTH 552 0
DWIDTH 23 0
BBX 21 32 1 -1
BITMAP
001F00
003E00
007C00
007C00
00F800
01F000
01F000
03E000
03E000
07C000
0FFC00
0FFF00
1FFFC0
3FFFE0
3F07E0
7E01F0
7C00F0
7800F8
F00078
F00078
F00078
F00078
F00078
F00078
7800F0
7C00F0
7E01F0
3F07E0
1FFFC0
0FFF80
07FF00
01FC00
ENDCHAR
STARTCHAR 0037
ENCODING 55
SWIDTH 552 0
DWIDTH 23 0
BBX 17 31 3 0
BITMAP
FFFF80
FFFF80
FFFF80
FFFF80
000780
000F00
000F00
000F00
001E00
001E00
003C00
003C00
007C00
007800
007800
00F000
00F000
01F000
01E000
03E000
03C000
03C000
07C000
078000
0F8000
0F8000
0F0000
1F0000
1E0000
3E0000
3E0000
ENDCHAR
STARTCHAR 0038
ENCODING 56
SWIDTH 552 0
DWIDTH 23 0
BBX 18 32 2 -1
BITMAP
03F000
07FC00
1FFE00
1FFF00
3E1F00
7C0F80
780780
780780
780780
780780
7C0F80
3E1F00
3FFF00
1FFE00
1FFE00
3FFF00
7E1F80
7C0F80
F807C0
F803C0
F003C0
F003C0
F003C0
F003C0
F003C0
780780
7C0F80
7E1F00
3FFF00
1FFE00
0FFC00
03F000
ENDCHAR
STARTCHAR 0039
ENCODING 57
SWIDTH 552 0
DWIDTH 23 0
BBX 20 31 1 0
BITMAP
01F800
07FE00
0FFF80
1FFF80
3F0FC0
7C03E0
7801E0
F801F0
F000F0
F000F0
F000F0
F000F0
F000F0
F801F0
7801E0
7C03E0
3F0FC0
3FFFC0
1FFF80
0FFF80
03FF00
001E00
003E00
007C00
007C00
00F800
00F000
01F000
03E000
03E000
07C000
ENDCHAR
STARTCHAR 003A
ENCODING 58
SWIDTH 288 0
DWIDTH 12 0
BBX 4 23 4 0
BITMAP
F0
F0
F0
F0
F0
00
00
00
00
00
00
00
00
00
00
00
00
00
F0
F0
F0
F0
F0
ENDCHAR
STARTCHAR 003B
ENCODING 59
SWIDTH 288 0
DWIDTH 12 0
BBX 4 28 4 -6
BITMAP
F0
F0
F0
F0
F0
00
00
00
00
00
00
00
00
00
00
00
00
00
F0
F0
F0
F0
F0
70
70
F0
E0
C0
ENDCHAR
STARTCHAR 003C
ENCODING 60
SWIDTH 600 0
DWIDTH 25 0
BBX 21 21 2 0
BITMAP
000018
000078
0003F8
000FF8
003FF0
01FF80
07FE00
1FF800
7FC000
FF0000
FC0000
FF0000
FFC000
1FF800
07FE00
01FF80
003FF0
000FF8
0003F8
000078
000018
ENDCHAR
STARTCHAR 003D
ENCODING 61
SWIDTH 600 0
DWIDTH 25 0
BBX 21 13 2 4
BITMAP
FFFFF8
FFFFF8
FFFFF8
FFFFF8
000000
000000
000000
000000
000000
FFFFF8
FFFFF8
FFFFF8
FFFFF8
ENDCHAR
STARTCHAR 003E
ENCODING 62
SWIDTH 600 0
DWIDTH 25 0
BBX 21 21 2 1
BITMAP
E00000
F80000
FE0000
FFC000
3FF000
07FC00
01FF80
007FE0
000FF8
0003F8
0001F8
000FF8
003FF0
00FF80
07FE00
1FF800
7FC000
FF0000
FC0000
E00000
800000
ENDCHAR
STARTCHAR 003F
ENCODING 63
SWIDTH 528 0
DWIDTH 22 0
BBX 18 31 1 0
BITMAP
03F000
0FFC00
1FFE00
3FFF00
7E1F80
7C0780
F807C0
F003C0
F003C0
0003C0
0003C0
0007C0
000F80
000F80
001F00
003E00
007C00
00F800
00F000
00F000
01F000
01E000
01E000
000000
000000
000000
01E000
01E000
01E000
01E000
01E000
ENDCHAR
STARTCHAR 0040
ENCODING 64
SWIDTH 768 0
DWIDTH 32 0
BBX 30 32 0 -1
BITMAP
000FF000
007FFE00
01FFFF80
03F00FC0
0FC003E0
0F0000F0
1E000070
3C000078
3807C038
781FF73C
703FFF1C
70783E1C
E0F01E1C
E0E00E1C
E1E00E1C
E1C00E1C
E1C00E1C
E1C00C1C
E1C01C38
E1C01C38
71E03C38
70F0FC70
70FFFFE0
387FEFC0
3C1F8780
1E000000
0F000000
0FC00060
07F003E0
01FFFFE0
007FFF80
000FF800
ENDCHAR
STARTCHAR 0041
ENCODING 65
SWIDTH 696 0
DWIDTH 29 0
BBX 27 31 1 0
BITMAP
001F0000
001F0000
001F0000
003F8000
003F8000
007FC000
007BC000
007BC000
00FBE000
00F1E000
00F1E000
01F1F000
01E0F000
03E0F800
03E0F800
03C07800
07C07C00
07C07C00
07FFFC00
0FFFFE00
0FFFFE00
0FFFFE00
1F001F00
1E001F00
3E000F80
3E000F80
3C000780
7C0007C0
7C0007C0
780003C0
F80003E0
ENDCHAR
STARTCHAR 0042
ENCODING 66
SWIDTH 576 0
DWIDTH 24 0
BBX 19 31 3 0
BITMAP
FFE000
FFFC00
FFFE00
FFFF00
F03F00
F00F80
F00780
F00780
F00780
F00780
F00780
F00F80
F01F00
FFFE00
FFFE00
FFFF00
FFFF80
F00FC0
F003C0
F003E0
F001E0
F001E0
F001E0
F001E0
F003E0
F007C0
F00FC0
FFFF80
FFFF00
FFFE00
FFF800
ENDCHAR
STARTCHAR 0043
ENCODING 67
SWIDTH 792 0
DWIDTH 33 0
BBX 29 32 2 -1
BITMAP
000FE000
007FFC00
01FFFF00
03FFFF80
07F03FC0
0FC00FE0
1F0003F0
3E0001F8
3C000000
7C000000
78000000
78000000
F0000000
F0000000
F0000000
F0000000
F0000000
F0000000
F0000000
F8000000
78000000
78000000
7C000000
3E000000
3E0001F0
1F8003F0
0FC00FE0
07F03FC0
03FFFF80
01FFFF00
007FFC00
001FE000
ENDCHAR
STARTCHAR 0044
ENCODING 68
SWIDTH 744 0
DWIDTH 31 0
BBX 24 31 3 0
BITMAP
FFFC00
FFFF00
FFFFC0
FFFFE0
F00FF0
F001F8
F000FC
F0007C
F0003E
F0003E
F0001E
F0001F
F0000F
F0000F
F0000F
F0000F
F0000F
F0000F
F0000F
F0000F
F0001E
F0001E
F0003E
F0003C
F000FC
F001F8
F00FF0
FFFFE0
FFFFC0
FFFF00
FFFC00
ENDCHAR
STARTCHAR 0045
ENCODING 69
SWIDTH 528 0
DWIDTH 22 0
BBX 16 31 3 0
BITMAP
FFFF
FFFF
FFFF
FFFF
F000
F000
F000
F000
F000
F000
F000
F000
F000
F000
FFFF
FFFF
FFFF
FFFF
F000
F000
F000
F000
F000
F000
F000
F000
F000
FFFF
FFFF
FFFF
FFFF
ENDCHAR
STARTCHAR 0046
ENCODING 70
SWIDTH 480 0
DWIDTH 20 0
BBX 15 31 3 0
BITMAP
FFFE
FFFE
FFFE
FFFE
F000
F000
F000
F000
F000
F000
F000
F000
F000
F000
FFFE
FFFE
FFFE
FFFE
F000
F000
F000
F000
F000
F000
F000
F000
F000
F000
F000
F000
F000
ENDCHAR
STARTCHAR 0047
ENCODING 71
SWIDTH 840 0
DWIDTH 35 0
BBX 31 32 2 -1
BITMAP
001FE000
007FFC00
01FFFE00
03FFFF80
07F03FC0
0FC00FE0
1F0003F0
3E0001F0
3C000000
7C000000
78000000
78000000
F8000000
F0000000
F0000000
F0000000
F00FFFFE
F00FFFFE
F00FFFFC
F80FFFFC
7800007C
7800007C
7C000078
3E0000F8
3E0001F0
1F8003F0
0FC007E0
07F03FC0
03FFFF80
01FFFE00
007FFC00
001FE000
ENDCHAR
STARTCHAR 0048
ENCODING 72
SWIDTH 672 0
DWIDTH 28 0
BBX 21 31 3 0
BITMAP
F00078
F00078
F00078
F00078
F00078
F00078
F00078
F00078
F00078
F00078
F00078
F00078
F00078
F00078
FFFFF8
FFFFF8
FFFFF8
FFFFF8
F00078
F00078
F00078
F00078
F00078
F00078
F00078
F00078
F00078
F00078
F00078
F00078
F00078
ENDCHAR
STARTCHAR 0049
ENCODING 73
SWIDTH 264 0
DWIDTH 11 0
BBX 4 31 3 0
BITMAP
F0
F0
F0
F0
F0
F0
F0
F0
F0
F0
F0
F0
F0
F0
F0
F0
F0
F0
F0
F0
F0
F0
F0
F0
F0
F0
F0
F0
F0
F0
F0
ENDCHAR
STARTCHAR 004A
ENCODING 74
SWIDTH 480 0
DWIDTH 20 0
BBX 16 32 0 -1
BITMAP
000F
000F
000F
000F
000F
000F
000F
000F
000F
000F
000F
000F
000F
000F
000F
000F
000F
000F
000F
000F
000F
000F
000F
000F
000F
F00F
F81F
FC3E
7FFE
3FFC
1FF8
07E0
ENDCHAR
STARTCHAR 004B
ENCODING 75
SWIDTH 624 0
DWIDTH 26 0
BBX 21 31 4 0
BITMAP
F001F8
F003F0
F003E0
F007C0
F00FC0
F01F80
F01F00
F03E00
F07C00
F0FC00
F0F800
F1F000
F3E000
F7E000
F7C000
FF8000
F7C000
F3E000
F3F000
F1F000
F0F800
F07C00
F07E00
F03E00
F01F00
F01F80
F00FC0
F007C0
F003E0
F003F0
F001F8
ENDCHAR
STARTCHAR 004C
ENCODING 76
SWIDTH 456 0
DWIDTH 19 0
BBX 15 31 3 0
BITMAP
F000
F000
F000
F000
F000
F000
F000
F000
F000
F000
F000
F000
F000
F000
F000
F000
F000
F000
F000
F000
F000
F000
F000
F000
F000
F000
F000
FFFE
FFFE
FFFE
FFFE
ENDCHAR
STARTCHAR 004D
ENCODING 77
SWIDTH 936 0
DWIDTH 39 0
BBX 32 31 3 0
BITMAP
FE00007F
FE00007F
FF0000FF
FF0000FF
FF0000FF
FF8001FF
F78001EF
F7C003EF
F3C003CF
F3C003CF
F3E007CF
F1E0078F
F1F00F8F
F0F00F0F
F0F00F0F
F0F81F0F
F0781E0F
F07C3E0F
F03C3C0F
F03C3C0F
F03E7C0F
F01E780F
F01FF80F
F00FF00F
F00FF00F
F00FF00F
F007E00F
F007E00F
F003C00F
F003C00F
F003C00F
ENDCHAR
STARTCHAR 004E
ENCODING 78
SWIDTH 744 0
DWIDTH 31 0
BBX 24 31 3 0
BITMAP
F8000F
F8000F
FC000F
FE000F
FE000F
FF000F
FF800F
FF800F
F7C00F
F3E00F
F3E00F
F1F00F
F0F80F
F0F80F
F07C0F
F03E0F
F03E0F
F01F0F
F00F8F
F00F8F
F007CF
F003EF
F003EF
F001FF
F000FF
F000FF
F0007F
F0003F
F0003F
F0001F
F0001F
ENDCHAR
STARTCHAR 004F
ENCODING 79
SWIDTH 840 0
DWIDTH 35 0
BBX 31 32 2 -1
BITMAP
000FE000
007FFC00
01FFFF00
03FFFF80
07F01FC0
0FC007E0
1F0001F0
3E0000F8
3E000078
7C00007C
7800003C
7800003C
F800003E
F000001E
F000001E
F000001E
F000001E
F000001E
F000001E
F800001E
7800003C
7800003C
7C00007C
3E000078
3E0000F8
1F0001F0
0FC007E0
07F01FC0
03FFFF80
01FFFF00
007FFC00
000FE000
ENDCHAR
STARTCHAR 0050
ENCODING 80
SWIDTH 552 0
DWIDTH 23 0
BBX 19 31 3 0
BITMAP
FFF800
FFFE00
FFFF00
FFFF80
F01FC0
F007C0
F003E0
F001E0
F001E0
F001E0
F001E0
F001E0
F003E0
F007C0
F01FC0
FFFF80
FFFF00
FFFE00
FFF000
F00000
F00000
F00000
F00000
F00000
F00000
F00000
F00000
F00000
F00000
F00000
F00000
ENDCHAR
STARTCHAR 0051
ENCODING 81
SWIDTH 840 0
DWIDTH 35 0
BBX 31 32 2 -1
BITMAP
001FE000
007FF800
01FFFE00
07FFFF80
0FF03FC0
0FC00FC0
1F0003E0
3E0001F0
3C0000F0
7C0000F8
78000078
78000078
F000003C
F000003C
F000003C
F000003C
F000003C
F000003C
F3FC003C
FFFF803C
7FFFE078
7FFFF078
7E07FCF8
3E01FFF0
3F007FF0
1F803FE0
0FC00FE0
07F03FF0
03FFFFFE
01FFFFFE
007FFC7E
001FE01E
ENDCHAR
STARTCHAR 0052
ENCODING 82
SWIDTH 600 0
DWIDTH 25 0
BBX 19 31 3 0
BITMAP
FFF800
FFFE00
FFFF00
FFFF80
F01FC0
F007C0
F003E0
F001E0
F001E0
F001E0
F001E0
F001E0
F001E0
F003E0
F007C0
F01FC0
FFFF80
FFFF00
F7FE00
F3F000
F3E000
F1F000
F0F800
F07C00
F07C00
F03E00
F01F00
F01F00
F00F80
F007C0
F007C0
ENDCHAR
STARTCHAR 0053
ENCODING 83
SWIDTH 504 0
DWIDTH 21 0
BBX 17 32 1 -1
BITMAP
03F000
0FFC00
1FFE00
3FFF00
3E1F00
3C0F80
780780
780780
780780
780000
7C0000
7E0000
3F8000
3FE000
1FF800
0FFC00
03FE00
00FF00
003F00
000F80
000780
000780
F00780
F00780
F00780
F80780
780F00
7E1F00
3FFE00
1FFE00
0FFC00
03F000
ENDCHAR
STARTCHAR 0054
ENCODING 84
SWIDTH 408 0
DWIDTH 17 0
BBX 16 31 0 0
BITMAP
FFFF
FFFF
FFFF
FFFF
03C0
03C0
03C0
03C0
03C0
03C0
03C0
03C0
03C0
03C0
03C0
03C0
03C0
03C0
03C0
03C0
03C0
03C0
03C0
03C0
03C0
03C0
03C0
03C0
03C0
03C0
03C0
ENDCHAR
STARTCHAR 0055
ENCODING 85
SWIDTH 648 0
DWIDTH 27 0
BBX 20 32 3 -1
BITMAP
F000F0
F000F0
F000F0
F000F0
F000F0
F000F0
F000F0
F000F0
F000F0
F000F0
F000F0
F000F0
F000F0
F000F0
F000F0
F000F0
F000F0
F000F0
F000F0
F000F0
F000F0
F000F0
F000F0
F000F0
F801F0
7801E0
7C03E0
3F07C0
3FFFC0
1FFF80
07FE00
01F800
ENDCHAR
STARTCHAR 0056
ENCODING 86
SWIDTH 696 0
DWIDTH 29 0
BBX 27 31 0 0
BITMAP
F80003E0
780003C0
7C0007C0
7C0007C0
3C000780
3E000F80
1E000F00
1F000F00
1F001F00
0F001E00
0F803E00
07803C00
07803C00
07C07C00
03C07800
03E0F800
03E0F800
01E0F000
01F1F000
00F1E000
00F9E000
00FBE000
007BC000
007FC000
003F8000
003F8000
003F8000
001F0000
001F0000
000E0000
000E0000
ENDCHAR
STARTCHAR 0057
ENCODING 87
SWIDTH 912 0
DWIDTH 38 0
BBX 36 31 1 0
BITMAP
F800F001F0
F800F001F0
7800F001E0
7C00F801E0
7C01F803E0
3C01F803C0
3C01F803C0
3C03FC03C0
3E03FC07C0
1E03FC0780
1E03FC0780
1E079E0780
1F079E0F80
0F079E0F00
0F079E0F00
0F0F0F0F00
078F0F1E00
078F0F1E00
078F0F1E00
079E07BE00
03DE07BC00
03DE07BC00
03DE07BC00
03FC03FC00
01FC03F800
01FC03F800
01FC03F800
00F801F000
00F801F000
00F801F000
00F801F000
ENDCHAR
STARTCHAR 0058
ENCODING 88
SWIDTH 648 0
DWIDTH 27 0
BBX 26 31 0 0
BITMAP
FC000FC0
7C000F80
3E001F00
3F003F00
1F003E00
0F807C00
0FC0FC00
07C0F800
03E1F000
03F3F000
01F3E000
00FFC000
00FFC000
007F8000
003F0000
003F0000
003F0000
007F8000
00FFC000
00FFC000
01F3E000
03E3F000
03E1F000
07C0F800
0F80FC00
0F807C00
1F003E00
3F003F00
3E001F00
7C000F80
FC000FC0
ENDCHAR
STARTCHAR 0059
ENCODING 89
SWIDTH 600 0
DWIDTH 25 0
BBX 22 31 1 0
BITMAP
F8007C
F8007C
7C00F8
7C00F8
3E01F0
3E01F0
1E01E0
1F03E0
0F03C0
0F87C0
078780
07CF80
03CF00
03FF00
03FE00
01FE00
01FE00
00FC00
00FC00
007800
007800
007800
007800
007800
007800
007800
007800
007800
007800
007800
007800
ENDCHAR
STARTCHAR 005A
ENCODING 90
SWIDTH 456 0
DWIDTH 19 0
BBX 19 31 0 0
BITMAP
7FFFC0
7FFFC0
7FFFC0
7FFFC0
0007C0
0007C0
000F80
001F00
001F00
003E00
003E00
007C00
00FC00
00F800
01F000
01F000
03E000
03E000
07C000
0F8000
0F8000
1F0000
1F0000
3E0000
7E0000
7C0000
F80000
FFFFE0
FFFFE0
FFFFE0
FFFFE0
ENDCHAR
STARTCHAR 005B
ENCODING 91
SWIDTH 408 0
DWIDTH 17 0
BBX 8 42 5 -11
BITMAP
01
07
0F
1F
3F
3E
7C
78
F8
F0
F0
F0
F0
F0
F0
F0
F0
F0
F0
F0
F0
F0
F0
F0
F0
F0
F0
F0
F0
F0
F0
F0
F0
F8
78
7C
3E
3F
1F
0F
07
01
ENDCHAR
STARTCHAR 005C
ENCODING 92
SWIDTH 504 0
DWIDTH 21 0
BBX 16 35 2 -4
BITMAP
F000
F800
F800
7800
7C00
7C00
3C00
3E00
3E00
1E00
1F00
1F00
0F00
0F80
0F80
0780
07C0
07C0
03C0
03E0
03E0
01F0
01F0
01F0
00F8
00F8
0078
007C
007C
003C
003E
003E
001E
001F
001F
ENDCHAR
STARTCHAR 005D
ENCODING 93
SWIDTH 408 0
DWIDTH 17 0
BBX 8 42 3 -11
BITMAP
80
E0
F0
F8
FC
7C
3E
1E
1F
0F
0F
0F
0F
0F
0F
0F
0F
0F
0F
0F
0F
0F
0F
0F
0F
0F
0F
0F
0F
0F
0F
0F
0F
1F
1E
3E
7C
FC
F8
F0
E0
80
ENDCHAR
STARTCHAR 005E
ENCODING 94
SWIDTH 600 0
DWIDTH 25 0
BBX 19 16 3 15
BITMAP
01F000
01F000
03F800
03F800
07FC00
07BC00
0F3C00
0F1E00
1F1E00
1E0F00
1E0F00
3C0780
3C0780
7803C0
7803C0
F001E0
ENDCHAR
STARTCHAR 005F
ENCODING 95
SWIDTH 504 0
DWIDTH 21 0
BBX 20 2 0 -6
BITMAP
FFFFF0
FFFFF0
ENDCHAR
STARTCHAR 0060
ENCODING 96
SWIDTH 552 0
DWIDTH 23 0
BBX 11 7 5 26
BITMAP
7000
FC00
FF00
3F80
0FE0
07C0
01C0
ENDCHAR
STARTCHAR 0061
ENCODING 97
SWIDTH 696 0
DWIDTH 29 0
BBX 23 25 2 -1
BITMAP
00FE00
03FF9E
0FFFDE
1FFFFE
1F83FE
3E00FE
7C007E
78003E
78003E
F8001E
F0001E
F0001E
F0001E
F0001E
F0001E
F8001E
78003E
7C003E
7C007E
3E00FE
3F83FE
1FFFDE
0FFFDE
03FF1E
00FC00
ENDCHAR
STARTCHAR 0062
ENCODING 98
SWIDTH 696 0
DWIDTH 29 0
BBX 23 32 3 -1
BITMAP
F00000
F00000
F00000
F00000
F00000
F00000
F00000
F07E00
F1FF80
F7FFE0
FFFFF0
FF83F0
FE00F8
FC007C
F8003C
F8003C
F8001E
F0001E
F0001E
F0001E
F0001E
F0001E
F8001E
F8003C
F8003C
FC007C
FE00F8
FF83F0
FFFFF0
F7FFE0
F1FF80
007E00
ENDCHAR
STARTCHAR 0063
ENCODING 99
SWIDTH 624 0
DWIDTH 26 0
BBX 23 25 2 -1
BITMAP
00FE00
03FF80
0FFFE0
1FFFF0
1F83F8
3E00F8
7C007C
78007C
78003E
F00000
F00000
F00000
F00000
F00000
F00000
F00000
780000
78007C
7C007C
3E00F8
1F83F0
1FFFF0
0FFFC0
03FF80
00FE00
ENDCHAR
STARTCHAR 0064
ENCODING 100
SWIDTH 696 0
DWIDTH 29 0
BBX 23 32 2 -1
BITMAP
00001E
00001E
00001E
00001E
00001E
00001E
00001E
00FE1E
03FF9E
0FFFDE
1FFFFE
1F83FE
3E00FE
7C007E
78003E
78003E
F8001E
F0001E
F0001E
F0001E
F0001E
F0001E
F8001E
78003E
7C003E
7C007E
3E00FE
3F83FE
1FFFFE
0FFFDE
03FF9E
00FC00
ENDCHAR
STARTCHAR 0065
ENCODING 101
SWIDTH 648 0
DWIDTH 27 0
BBX 22 25 2 -1
BITMAP
00FC00
03FF00
0FFFC0
1FFFE0
3F07F0
3E01F0
7C00F8
780078
78007C
F0003C
F0003C
FFFFFC
FFFFFC
FFFFFC
F00000
F00000
780000
780078
7C00F8
3E01F0
1F83E0
1FFFE0
0FFFC0
03FF00
00FC00
ENDCHAR
STARTCHAR 0066
ENCODING 102
SWIDTH 288 0
DWIDTH 12 0
BBX 10 31 1 0
BITMAP
03C0
0FC0
1FC0
1FC0
3E00
3C00
3C00
3C00
FFC0
FFC0
FFC0
FFC0
3C00
3C00
3C00
3C00
3C00
3C00
3C00
3C00
3C00
3C00
3C00
3C00
3C00
3C00
3C00
3C00
3C00
3C00
3C00
ENDCHAR
STARTCHAR 0067
ENCODING 103
SWIDTH 696 0
DWIDTH 29 0
BBX 24 33 2 -9
BITMAP
007E00
03FFCF
07FFEF
0FFFFF
1F81FF
3E007F
3C003F
7C001F
78001F
F8000F
F0000F
F0000F
F0000F
F0000F
F0000F
F8001F
78001F
7C003F
3C003F
3F007F
1F81FF
0FFFFF
07FFEF
03FFCF
007E0F
00001E
7C003E
3E007E
3F81FC
1FFFF8
0FFFF0
03FFE0
00FF00
ENDCHAR
STARTCHAR 0068
ENCODING 104
SWIDTH 624 0
DWIDTH 26 0
BBX 20 31 3 0
BITMAP
F00000
F00000
F00000
F00000
F00000
F00000
F00000
F0FC00
F3FF00
F7FF80
FFFFC0
FF07E0
FC03E0
F801F0
F801F0
F000F0
F000F0
F000F0
F000F0
F000F0
F000F0
F000F0
F000F0
F000F0
F000F0
F000F0
F000F0
F000F0
F000F0
F000F0
F000F0
ENDCHAR
STARTCHAR 0069
ENCODING 105
SWIDTH 240 0
DWIDTH 10 0
BBX 4 31 3 0
BITMAP
F0
F0
F0
F0
F0
00
00
00
F0
F0
F0
F0
F0
F0
F0
F0
F0
F0
F0
F0
F0
F0
F0
F0
F0
F0
F0
F0
F0
F0
F0
ENDCHAR
STARTCHAR 006A
ENCODING 106
SWIDTH 240 0
DWIDTH 10 0
BBX 7 40 0 -10
BITMAP
1E
1E
1E
1E
1E
00
00
00
1E
1E
1E
1E
1E
1E
1E
1E
1E
1E
1E
1E
1E
1E
1E
1E
1E
1E
1E
1E
1E
1E
1E
1E
1E
1E
3E
FC
FC
F8
F0
C0
ENDCHAR
STARTCHAR 006B
ENCODING 107
SWIDTH 552 0
DWIDTH 23 0
BBX 18 31 3 0
BITMAP
F00000
F00000
F00000
F00000
F00000
F00000
F00000
F00000
F00F80
F01F00
F03E00
F03C00
F07C00
F0F800
F1F000
F1E000
F3E000
F7C000
FF8000
FFC000
F7C000
F3E000
F1F000
F1F800
F0F800
F07C00
F03E00
F03F00
F01F80
F00F80
F007C0
ENDCHAR
STARTCHAR 006C
ENCODING 108
SWIDTH 240 0
DWIDTH 10 0
BBX 4 31 3 0
BITMAP
F0
F0
F0
F0
F0
F0
F0
F0
F0
F0
F0
F0
F0
F0
F0
F0
F0
F0
F0
F0
F0
F0
F0
F0
F0
F0
F0
F0
F0
F0
F0
ENDCHAR
STARTCHAR 006D
ENCODING 109
SWIDTH 960 0
DWIDTH 40 0
BBX 34 24 3 0
BITMAP
00F803F000
F3FE0FFC00
F7FF1FFF00
FFFFBFFF00
FE0FFC1F80
FC03F80F80
F803F007C0
F001E003C0
F001E003C0
F001E003C0
F001E003C0
F001E003C0
F001E003C0
F001E003C0
F001E003C0
F001E003C0
F001E003C0
F001E003C0
F001E003C0
F001E003C0
F001E003C0
F001E003C0
F001E003C0
F001E003C0
ENDCHAR
STARTCHAR 006E
ENCODING 110
SWIDTH 624 0
DWIDTH 26 0
BBX 20 24 3 0
BITMAP
00FC00
F3FF00
F7FF80
FFFFC0
FF07E0
FC03E0
F801F0
F801F0
F000F0
F000F0
F000F0
F000F0
F000F0
F000F0
F000F0
F000F0
F000F0
F000F0
F000F0
F000F0
F000F0
F000F0
F000F0
F000F0
ENDCHAR
STARTCHAR 006F
ENCODING 111
SWIDTH 672 0
DWIDTH 28 0
BBX 24 25 2 -1
BITMAP
007E00
03FFC0
07FFE0
0FFFF0
1F81F8
3E007C
3C003E
7C003E
78001E
F8001F
F0000F
F0000F
F0000F
F0000F
F0000F
F8001F
78001E
7C001E
3C003C
3F007C
1F81F8
0FFFF0
07FFE0
03FFC0
007E00
ENDCHAR
STARTCHAR 0070
ENCODING 112
SWIDTH 696 0
DWIDTH 29 0
BBX 23 32 3 -8
BITMAP
007E00
F1FF80
F7FFE0
F7FFF0
FF83F8
FE00F8
FC007C
F8007C
F8003C
F8003E
F0001E
F0001E
F0001E
F0001E
F0001E
F8001E
F8003E
F8003C
FC007C
FE00F8
FF83F8
FFFFF0
F7FFE0
F3FF80
F07E00
F00000
F00000
F00000
F00000
F00000
F00000
F00000
ENDCHAR
STARTCHAR 0071
ENCODING 113
SWIDTH 696 0
DWIDTH 29 0
BBX 23 32 2 -8
BITMAP
00FE00
03FF9E
07FFDE
1FFFFE
1F83FE
3E00FE
7C007E
78003E
78003E
F0001E
F0001E
F0001E
F0001E
F0001E
F0001E
F8001E
78003E
7C003E
7C007E
3E00FE
1F83FE
1FFFFE
0FFFDE
03FF9E
00FC1E
00001E
00001E
00001E
00001E
00001E
00001E
00001E
ENDCHAR
STARTCHAR 0072
ENCODING 114
SWIDTH 312 0
DWIDTH 13 0
BBX 10 23 3 0
BITMAP
F3C0
F7C0
FFC0
FFC0
FE00
FC00
F800
F000
F000
F000
F000
F000
F000
F000
F000
F000
F000
F000
F000
F000
F000
F000
F000
ENDCHAR
STARTCHAR 0073
ENCODING 115
SWIDTH 432 0
DWIDTH 18 0
BBX 15 25 1 -1
BITMAP
07E0
0FF0
1FFC
3FFC
7C7E
783E
783E
7800
7C00
7F00
3FE0
1FF0
0FF8
03FC
00FE
003E
001E
F01E
F01E
F81E
7C3C
7FFC
3FF8
1FF0
07C0
ENDCHAR
STARTCHAR 0074
ENCODING 116
SWIDTH 288 0
DWIDTH 12 0
BBX 11 31 0 0
BITMAP
1E00
1E00
1E00
1E00
1E00
1E00
1E00
1E00
FFE0
FFE0
FFE0
FFE0
1E00
1E00
1E00
1E00
1E00
1E00
1E00
1E00
1E00
1E00
1E00
1E00
1E00
1E00
1E00
1E00
1E00
1E00
1E00
ENDCHAR
STARTCHAR 0075
ENCODING 117
SWIDTH 624 0
DWIDTH 26 0
BBX 20 24 3 -1
BITMAP
F000F0
F000F0
F000F0
F000F0
F000F0
F000F0
F000F0
F000F0
F000F0
F000F0
F000F0
F000F0
F000F0
F000F0
F000F0
F000F0
F801F0
7801F0
7C03F0
7E07F0
3FFFF0
1FFFF0
0FFCF0
03F000
ENDCHAR
STARTCHAR 0076
ENCODING 118
SWIDTH 528 0
DWIDTH 22 0
BBX 21 23 1 0
BITMAP
F800F8
7800F0
7800F0
7C01F0
3C01E0
3E03E0
1E03C0
1E03C0
1F07C0
0F0780
0F0780
078F80
078F00
078F00
03DE00
03DE00
03FE00
01FC00
01FC00
00F800
00F800
00F800
007000
ENDCHAR
STARTCHAR 0077
ENCODING 119
SWIDTH 792 0
DWIDTH 33 0
BBX 31 23 1 0
BITMAP
F803803E
7803803C
7807C03C
7C07C07C
3C07C078
3C0FE078
3E0FE0F8
1E0FE0F0
1E0EF0F0
1F1EF1F0
0F1EF1E0
0F1C71E0
07BC7BE0
07BC7BC0
07B83BC0
03F83F80
03F83F80
03F01F80
01F01F00
01F01F00
01E00F00
00E00E00
00E00E00
ENDCHAR
STARTCHAR 0078
ENCODING 120
SWIDTH 528 0
DWIDTH 22 0
BBX 21 23 0 0
BITMAP
7C01F0
7C03F0
3E03E0
1F07C0
1F0FC0
0F8F80
07DF00
07FF00
03FE00
01FC00
01FC00
00F800
01FC00
03FE00
03FE00
07DF00
0F8F80
0F8F80
1F07C0
3E03E0
3E03E0
7C01F0
F800F8
ENDCHAR
STARTCHAR 0079
ENCODING 121
SWIDTH 576 0
DWIDTH 24 0
BBX 23 31 0 -8
BITMAP
F8003E
78003C
7C007C
7C007C
3C0078
3E00F8
1E00F0
1E01F0
1F01F0
0F01E0
0F83E0
0783C0
0783C0
07C780
03C780
03CF80
01EF00
01EF00
01FE00
00FE00
00FE00
007C00
007C00
007800
00F800
00F800
00F000
01F000
01E000
03E000
03E000
ENDCHAR
STARTCHAR 007A
ENCODING 122
SWIDTH 408 0
DWIDTH 17 0
BBX 16 23 0 0
BITMAP
7FFE
7FFE
7FFE
7FFE
003E
003C
007C
00F8
00F0
01F0
03E0
03C0
07C0
0F80
1F00
1F00
3E00
7C00
7C00
FFFF
FFFF
FFFF
FFFF
ENDCHAR
STARTCHAR 007B
ENCODING 123
SWIDTH 336 0
DWIDTH 14 0
BBX 12 39 1 -8
BITMAP
01F0
03F0
07F0
0F80
0F00
0F00
0F00
0F00
0F00
0F00
0F00
0F00
0F00
0F00
0F00
1F00
3F00
FE00
F800
FC00
FE00
3F00
1F00
0F00
0F00
0F00
0F00
0F00
0F00
0F00
0F00
0F00
0F00
0F00
0F00
0F80
07F0
03F0
01F0
ENDCHAR
STARTCHAR 007C
ENCODING 124
SWIDTH 552 0
DWIDTH 23 0
BBX 4 35 9 -4
BITMAP
F0
F0
F0
F0
F0
F0
F0
F0
F0
F0
F0
F0
F0
F0
F0
F0
F0
F0
F0
F0
F0
F0
F0
F0
F0
F0
F0
F0
F0
F0
F0
F0
F0
F0
F0
ENDCHAR
STARTCHAR 007D
ENCODING 125
SWIDTH 336 0
DWIDTH 14 0
BBX 12 39 1 -8
BITMAP
F800
FC00
FE00
1F00
0F00
0F00
0F00
0F00
0F00
0F00
0F00
0F00
0F00
0F00
0F00
0F00
0F80
0FC0
07F0
03F0
01F0
07F0
0FC0
0F80
0F00
0F00
0F00
0F00
0F00
0F00
0F00
0F00
0F00
0F00
0F00
1F00
FE00
FC00
F800
ENDCHAR
STARTCHAR 007E
ENCODING 126
SWIDTH 600 0
DWIDTH 25 0
BBX 19 7 3 7
BITMAP
1F0040
3FC0C0
7FF1E0
FFFFE0
E0FFC0
403F80
401F00
ENDCHAR
STARTCHAR 00A1
ENCODING 161
SWIDTH 288 0
DWIDTH 12 0
BBX 4 31 4 -8
BITMAP
F0
F0
F0
F0
F0
00
00
00
F0
F0
F0
F0
F0
F0
F0
F0
F0
F0
F0
F0
F0
F0
F0
F0
F0
F0
F0
F0
F0
F0
F0
ENDCHAR
STARTCHAR 00A2
ENCODING 162
SWIDTH 552 0
DWIDTH 23 0
BBX 20 28 2 3
BITMAP
00F000
00F000
00F000
00F000
03FC00
0FFF00
1FFF80
3FFFC0
3F0FE0
7C03E0
7801F0
F80000
F00000
F00000
F00000
F00000
F80000
780000
7C03E0
7F07E0
3FFFC0
1FFF80
0FFF00
03FC00
00F000
00F000
00F000
00F000
ENDCHAR
STARTCHAR 00A3
ENCODING 163
SWIDTH 552 0
DWIDTH 23 0
BBX 22 31 0 0
BITMAP
00FC00
07FF00
0FFFC0
1FFFE0
3F07E0
3E01F0
3C00F0
7800F8
780000
780000
780000
780000
3C0000
FFFF00
FFFF00
FFFF00
FFFF00
07C000
03E000
01F07C
00F03C
00F03C
00F03C
00F03C
00F07C
00F078
01F0F8
3FFFF0
3FFFF0
3FFFC0
3FFF00
ENDCHAR
STARTCHAR 00A4
ENCODING 164
SWIDTH 552 0
DWIDTH 23 0
BBX 19 20 2 3
BITMAP
6000C0
F1F1E0
FFFFE0
7FFFC0
3FFF80
3F1F80
3C0780
7C07C0
7803C0
7803C0
7803C0
7803C0
7C07C0
3C0780
3F1F80
3FFF80
7FFFC0
FFFFE0
F1F1E0
6000C0
ENDCHAR
STARTCHAR 00A5
ENCODING 165
SWIDTH 552 0
DWIDTH 23 0
BBX 22 31 0 0
BITMAP
F8007C
780078
7C00F8
3C00F0
3E01F0
1E01E0
0F03C0
0F87C0
078780
07CF80
7FCFF8
7FFFF8
7FFFF8
7FFFF8
00FC00
00FC00
007800
007800
007800
7FFFF8
7FFFF8
7FFFF8
7FFFF8
007800
007800
007800
007800
007800
007800
007800
007800
ENDCHAR
STARTCHAR 00A6
ENCODING 166
SWIDTH 552 0
DWIDTH 23 0
BBX 4 35 9 -4
BITMAP
F0
F0
F0
F0
F0
F0
F0
F0
F0
F0
F0
F0
F0
F0
00
00
00
00
00
00
00
F0
F0
F0
F0
F0
F0
F0
F0
F0
F0
F0
F0
F0
F0
ENDCHAR
STARTCHAR 00A7
ENCODING 167
SWIDTH 576 0
DWIDTH 24 0
BBX 19 40 2 -9
BITMAP
01F000
07FC00
0FFE00
1FFF00
1F0F80
3E0780
3C0780
3C0780
3C0000
3E0000
1F8000
1FC000
3FF000
7FFC00
79FF00
F07F80
F01FC0
F007C0
F003E0
F801E0
FC01E0
7F01E0
3F81E0
1FE3C0
07FFC0
03FF80
00FF00
003F80
000F80
0007C0
0003C0
7803C0
7803C0
7803C0
3C07C0
3E0F80
3FFF80
1FFF00
0FFE00
01F000
ENDCHAR
STARTCHAR 00A8
ENCODING 168
SWIDTH 552 0
DWIDTH 23 0
BBX 10 5 6 26
BITMAP
F3C0
F3C0
F3C0
F3C0
F3C0
ENDCHAR
STARTCHAR 00A9
ENCODING 169
SWIDTH 792 0
DWIDTH 33 0
BBX 31 31 1 0
BITMAP
000FE000
007FFC00
01FFFF00
03F01F80
078007C0
0F0001E0
1E07E0F0
3C1FF878
383FFC38
78783E3C
70F00E1C
70E00F1E
E1E0000E
E1C0000E
E1C0000E
E1C0000E
E1C0000E
E1C0000E
E1E0000E
70E00F1E
70F00E1C
78783E1C
383FFC38
3C1FF878
1E07E0F0
0F0001E0
07C003C0
03F01F80
01FFFF00
007FFC00
000FE000
ENDCHAR
STARTCHAR 00AA
ENCODING 170
SWIDTH 384 0
DWIDTH 16 0
BBX 13 13 1 18
BITMAP
0FB8
3FF8
7FF8
78F8
F078
E038
E038
E038
F078
78F8
7FF8
3FF8
0FB8
ENDCHAR
STARTCHAR 00AB
ENCODING 171
SWIDTH 360 0
DWIDTH 15 0
BBX 13 15 1 4
BITMAP
0408
0C18
1C38
3C78
7CF8
F9F0
F1E0
E1C0
F1E0
F9F0
7CF8
3C78
1C38
0C18
0408
ENDCHAR
STARTCHAR 00AC
ENCODING 172
SWIDTH 600 0
DWIDTH 25 0
BBX 20 12 2 4
BITMAP
FFFFF0
FFFFF0
FFFFF0
FFFFF0
0000F0
0000F0
0000F0
0000F0
0000F0
0000F0
0000F0
0000F0
ENDCHAR
STARTCHAR 00AE
ENCODING 174
SWIDTH 792 0
DWIDTH 33 0
BBX 31 31 1 0
BITMAP
000FE000
007FFC00
01FFFF00
03F01F80
07C007C0
0F0001E0
1E0000F0
3C7FE078
387FF838
787FFC3C
70703C1C
70701C1C
E0701C0E
E0701C0E
E070380E
E07FF80E
E07FE00E
E07FF80E
E0703C0E
F0701C1E
70701C1C
70701C1C
38701C38
3C701C78
1E701CF0
0F0001E0
0FC003E0
03F01F80
01FFFF00
007FFC00
000FE000
ENDCHAR
STARTCHAR 00AF
ENCODING 175
SWIDTH 552 0
DWIDTH 23 0
BBX 15 3 4 27
BITMAP
FFFE
FFFE
FFFE
ENDCHAR
STARTCHAR 00B0
ENCODING 176
SWIDTH 408 0
DWIDTH 17 0
BBX 12 11 2 18
BITMAP
1F80
3FC0
78E0
7070
E070
E070
E070
7070
78E0
3FC0
1F80
ENDCHAR
STARTCHAR 00B1
ENCODING 177
SWIDTH 600 0
DWIDTH 25 0
BBX 20 25 2 -2
BITMAP
00F000
00F000
00F000
00F000
00F000
00F000
00F000
FFFFF0
FFFFF0
FFFFF0
FFFFF0
00F000
00F000
00F000
00F000
00F000
00F000
00F000
000000
000000
000000
FFFFF0
FFFFF0
FFFFF0
FFFFF0
ENDCHAR
STARTCHAR 00B2
ENCODING 178
SWIDTH 360 0
DWIDTH 15 0
BBX 12 19 1 12
BITMAP
0F00
3FC0
7FE0
70F0
E070
E070
E070
0070
00E0
01E0
03C0
0780
0F00
1E00
3C00
7800
FFF0
FFF0
FFF0
ENDCHAR
STARTCHAR 00B3
ENCODING 179
SWIDTH 360 0
DWIDTH 15 0
BBX 12 19 1 12
BITMAP
0F00
3FC0
3FC0
79E0
70E0
00E0
01E0
07C0
07C0
07E0
00F0
0070
0070
E070
E070
F0E0
7FE0
3FC0
1F00
ENDCHAR
STARTCHAR 00B4
ENCODING 180
SWIDTH 552 0
DWIDTH 23 0
BBX 11 8 7 25
BITMAP
00C0
03C0
07E0
1FC0
7F00
FE00
7800
6000
ENDCHAR
STARTCHAR 00B5
ENCODING 181
SWIDTH 624 0
DWIDTH 26 0
BBX 19 31 3 -8
BITMAP
F001E0
F001E0
F001E0
F001E0
F001E0
F001E0
F001E0
F001E0
F001E0
F001E0
F001E0
F001E0
F001E0
F001E0
F001E0
F001E0
F803E0
F803E0
FC07E0
FE0FE0
FFFFE0
FFFDE0
F7FDE0
F1F000
F00000
F00000
F00000
F00000
F00000
F00000
F00000
ENDCHAR
STARTCHAR 00B6
ENCODING 182
SWIDTH 648 0
DWIDTH 27 0
BBX 22 37 0 -8
BITMAP
03FFFC
1FFFFC
3FFFFC
7FF83C
7FF83C
FFF83C
FFF83C
FFF83C
FFF83C
FFF83C
7FF83C
7FF83C
3FF83C
0FF83C
00783C
00783C
00783C
00783C
00783C
00783C
00783C
00783C
00783C
00783C
00783C
00783C
00783C
00783C
00783C
00783C
00783C
00783C
00783C
00783C
00783C
00783C
00783C
ENDCHAR
STARTCHAR 00B7
ENCODING 183
SWIDTH 288 0
DWIDTH 12 0
BBX 4 4 4 8
BITMAP
F0
F0
F0
F0
ENDCHAR
STARTCHAR 00B8
ENCODING 184
SWIDTH 552 0
DWIDTH 23 0
BBX 7 10 8 -10
BITMAP
30
70
60
7C
7E
06
06
C6
FC
78
ENDCHAR
STARTCHAR 00B9
ENCODING 185
SWIDTH 360 0
DWIDTH 15 0
BBX 6 19 4 12
BITMAP
FC
FC
FC
1C
1C
1C
1C
1C
1C
1C
1C
1C
1C
1C
1C
1C
1C
1C
1C
ENDCHAR
STARTCHAR 00BA
ENCODING 186
SWIDTH 384 0
DWIDTH 16 0
BBX 13 13 1 18
BITMAP
0F80
3FE0
7FF0
78F0
F078
E038
E038
E038
F078
78F0
7FF0
3FE0
0F80
ENDCHAR
STARTCHAR 00BB
ENCODING 187
SWIDTH 360 0
DWIDTH 15 0
BBX 13 15 1 5
BITMAP
8100
C180
E1C0
F1E0
F9F0
7CF8
3C78
1C38
3C78
7CF8
F9F0
F1E0
E1C0
C180
8100
ENDCHAR
STARTCHAR 00BC
ENCODING 188
SWIDTH 696 0
DWIDTH 29 0
BBX 28 31 0 0
BITMAP
FC003C00
FC003800
FC003800
1C007000
1C007000
1C00E000
1C00E000
1C01C000
1C01C000
1C038000
1C038000
1C038000
1C070000
1C0701C0
1C0E03C0
1C0E07C0
1C1C07C0
1C1C0FC0
1C381FC0
00383DC0
003039C0
007079C0
0070F1C0
00E0E1C0
00E1E1C0
01C3FFF0
01C3FFF0
0383FFF0
038001C0
030001C0
070001C0
ENDCHAR
STARTCHAR 00BD
ENCODING 189
SWIDTH 720 0
DWIDTH 30 0
BBX 28 31 0 0
BITMAP
FC003800
FC007000
FC007000
1C006000
1C00E000
1C00C000
1C01C000
1C01C000
1C038000
1C038000
1C070000
1C070000
1C0E0F80
1C0E1FC0
1C1C3FE0
1C1C38E0
1C187070
1C387070
1C307070
00700070
007000F0
00E001E0
00E001C0
01C003C0
01C00780
03800F00
03801E00
07003C00
07007FF0
06007FF0
0E007FF0
ENDCHAR
STARTCHAR 00BE
ENCODING 190
SWIDTH 792 0
DWIDTH 33 0
BBX 30 31 1 0
BITMAP
0F000700
3FC00E00
3FC00E00
79E01C00
70E01C00
00E01800
01E03800
07C03800
07C07000
07E07000
00F0E000
0070E000
0070C070
E071C070
E071C0F0
F0E381F0
7FE381F0
3FC703F0
1F070770
00060770
000E0E70
000E1E70
001C1C70
001C3870
00387870
00387FFC
00307FFC
00707FFC
00700070
00E00070
00E00070
ENDCHAR
STARTCHAR 00BF
ENCODING 191
SWIDTH 528 0
DWIDTH 22 0
BBX 18 31 2 -8
BITMAP
01E000
01E000
01E000
01E000
01E000
000000
000000
000000
01E000
01E000
01E000
03C000
03C000
07C000
0F8000
1F0000
3E0000
7E0000
7C0000
F80000
F00000
F00000
F003C0
F003C0
F807C0
780F80
7E1F80
3FFF00
1FFE00
0FFC00
03F000
ENDCHAR
STARTCHAR 00C0
ENCODING 192
SWIDTH 696 0
DWIDTH 29 0
BBX 27 40 1 1
BITMAP
00E00000
00F80000
01FE0000
007F8000
001FC000
000FC000
00038000
00000000
00000000
001F0000
001F0000
001F0000
003F8000
003F8000
007FC000
007BC000
007BC000
00FBE000
00F1E000
00F1E000
01F1F000
01E0F000
01E0F800
03E0F800
03C07800
07C07C00
07C07C00
07FFFC00
0FFFFE00
0FFFFE00
0FFFFE00
1F001F00
1E001F00
3E000F80
3E000F80
3C000780
7C0007C0
780007C0
780003C0
F80003E0
ENDCHAR
STARTCHAR 00C1
ENCODING 193
SWIDTH 696 0
DWIDTH 29 0
BBX 27 40 1 0
BITMAP
00004000
0001E000
0003F000
000FE000
003F8000
007E0000
003C0000
00300000
00000000
001F0000
001F0000
001F8000
003F8000
003F8000
003FC000
007BC000
007BC000
00FBE000
00F1E000
00F1E000
01F1F000
01E0F000
01E0F800
03E0F800
03C07800
07C07C00
07C07C00
07FFFC00
0FFFFE00
0FFFFE00
0FFFFF00
1F001F00
1E000F00
3E000F80
3E000F80
3C000780
7C0007C0
7C0007C0
780003C0
F80003E0
ENDCHAR
STARTCHAR 00C2
ENCODING 194
SWIDTH 696 0
DWIDTH 29 0
BBX 27 39 1 0
BITMAP
001F0000
003F8000
007FC000
00FBE000
01F1F000
03E0F800
00000000
00000000
001F0000
001F0000
001F0000
003F8000
003F8000
007F8000
007BC000
007BC000
00FBE000
00F1E000
00F1E000
01F1F000
01E1F000
03E0F000
03E0F800
03C0F800
07C07C00
07C07C00
07FFFC00
0FFFFE00
0FFFFE00
0FFFFE00
1F001F00
1F001F00
3E000F80
3E000F80
3E000F80
7C0007C0
7C0007C0
780007C0
F80003E0
ENDCHAR
STARTCHAR 00C3
ENCODING 195
SWIDTH 696 0
DWIDTH 29 0
BBX 27 37 1 0
BITMAP
00F83000
03FFF000
01FFF800
0083E000
00000000
00000000
001F0000
001F0000
001F0000
003F8000
003F8000
007FC000
007BC000
007BC000
00FBE000
00F1E000
00F1E000
01F1F000
01E0F000
01E0F800
03E0F800
03C07800
07C07C00
07C07C00
07FFFC00
0FFFFE00
0FFFFE00
0FFFFE00
1F001F00
1E001F00
3E000F80
3E000F80
3C000780
7C0007C0
7C0007C0
780003C0
F80003E0
ENDCHAR
STARTCHAR 00C4
ENCODING 196
SWIDTH 696 0
DWIDTH 29 0
BBX 27 38 1 0
BITMAP
00F1E000
00F1E000
00F1E000
00F1E000
00F1E000
00000000
00000000
001F0000
001F0000
003F8000
003F8000
003FC000
007FC000
007BC000
007BE000
00FBE000
00F1E000
01F1F000
01F1F000
01E0F000
03E0F800
03E0F800
03C07800
07C07C00
07C07C00
07FFFE00
0FFFFE00
0FFFFE00
1FFFFF00
1F001F00
1E000F00
3E000F80
3E000F80
3C000780
7C0007C0
780007C0
780003C0
F80003E0
ENDCHAR
STARTCHAR 00C5
ENCODING 197
SWIDTH 696 0
DWIDTH 29 0
BBX 27 40 1 1
BITMAP
001F0000
003F8000
0071C000
0060C000
0060C000
0071C000
003F8000
001F0000
00000000
001F0000
001F0000
003F8000
003F8000
003F8000
007FC000
007BC000
007BC000
00FBE000
00F1E000
01F1F000
01F1F000
01E0F000
03E0F800
03E0F800
03C07800
07C07C00
07C07C00
07FFFC00
0FFFFE00
0FFFFE00
1FFFFF00
1F001F00
1F001F00
3E000F80
3E000F80
3C000780
7C0007C0
7C0007C0
780003C0
F80003E0
ENDCHAR
STARTCHAR 00C6
ENCODING 198
SWIDTH 936 0
DWIDTH 39 0
BBX 34 31 1 0
BITMAP
00001FFFC0
00001FFFC0
00003FFFC0
00007FFFC0
00007F0000
0000FF0000
0001FF0000
0001EF0000
0003EF0000
0007CF0000
0007CF0000
000F8F0000
001F0F0000
001F0F0000
003E0FFFC0
007C0FFFC0
007C0FFFC0
00F80FFFC0
00FFFF0000
01FFFF0000
03FFFF0000
03FFFF0000
07C00F0000
0F800F0000
0F800F0000
1F000F0000
3E000F0000
3E000FFFC0
7C000FFFC0
F8000FFFC0
F8000FFFC0
ENDCHAR
STARTCHAR 00C7
ENCODING 199
SWIDTH 792 0
DWIDTH 33 0
BBX 28 41 2 -11
BITMAP
001FE000
007FFC00
01FFFF00
03FFFF80
07F03FC0
0FC00FE0
1F0003F0
3E0001F0
3C000000
7C000000
78000000
78000000
F0000000
F0000000
F0000000
F0000000
F0000000
F0000000
F0000000
F8000000
78000000
78000000
7C000000
3E000000
3E0001F0
1F0003F0
0FC00FE0
07F03FC0
03FFFF80
01FFFE00
007FFC00
001FE000
00060000
000C0000
000F8000
000FC000
0000C000
0000C000
0018C000
001F8000
000F0000
ENDCHAR
STARTCHAR 00C8
ENCODING 200
SWIDTH 528 0
DWIDTH 22 0
BBX 16 41 3 0
BITMAP
1000
3C00
7E00
3F80
1FE0
07F0
01E0
0060
0000
0000
FFFF
FFFF
FFFF
FFFF
F000
F000
F000
F000
F000
F000
F000
F000
F000
F000
FFFF
FFFF
FFFF
FFFF
F000
F000
F000
F000
F000
F000
F000
F000
F000
FFFF
FFFF
FFFF
FFFF
ENDCHAR
STARTCHAR 00C9
ENCODING 201
SWIDTH 528 0
DWIDTH 22 0
BBX 16 40 3 0
BITMAP
0010
0078
00FC
03F8
0FE0
1FC0
0F00
0C00
0000
FFFF
FFFF
FFFF
FFFF
F000
F000
F000
F000
F000
F000
F000
F000
F000
F000
FFFF
FFFF
FFFF
FFFF
F000
F000
F000
F000
F000
F000
F000
F000
F000
FFFF
FFFF
FFFF
FFFF
ENDCHAR
STARTCHAR 00CA
ENCODING 202
SWIDTH 528 0
DWIDTH 22 0
BBX 16 39 3 0
BITMAP
07C0
0FE0
1FF0
3EF8
7C7C
F83E
0000
0000
FFFF
FFFF
FFFF
FFFF
F000
F000
F000
F000
F000
F000
F000
F000
F000
F000
FFFF
FFFF
FFFF
FFFF
F000
F000
F000
F000
F000
F000
F000
F000
F000
FFFF
FFFF
FFFF
FFFF
ENDCHAR
STARTCHAR 00CB
ENCODING 203
SWIDTH 528 0
DWIDTH 22 0
BBX 16 38 3 0
BITMAP
3C78
3C78
3C78
3C78
3C78
0000
0000
FFFF
FFFF
FFFF
FFFF
F000
F000
F000
F000
F000
F000
F000
F000
F000
F000
FFFF
FFFF
FFFF
FFFF
F000
F000
F000
F000
F000
F000
F000
F000
F000
FFFF
FFFF
FFFF
FFFF
ENDCHAR
STARTCHAR 00CC
ENCODING 204
SWIDTH 264 0
DWIDTH 11 0
BBX 11 41 -3 0
BITMAP
2000
7000
FC00
7F00
3FC0
0FE0
03C0
01C0
0000
0000
03C0
03C0
03C0
03C0
03C0
03C0
03C0
03C0
03C0
03C0
03C0
03C0
03C0
03C0
03C0
03C0
03C0
03C0
03C0
03C0
03C0
03C0
03C0
03C0
03C0
03C0
03C0
03C0
03C0
03C0
03C0
ENDCHAR
STARTCHAR 00CD
ENCODING 205
SWIDTH 264 0
DWIDTH 11 0
BBX 11 40 2 0
BITMAP
0080
03C0
07E0
1FC0
7F00
FE00
7800
2000
0000
7800
7800
7800
7800
7800
7800
7800
7800
7800
7800
7800
7800
7800
7800
7800
7800
7800
7800
7800
7800
7800
7800
7800
7800
7800
7800
7800
7800
7800
7800
7800
ENDCHAR
STARTCHAR 00CE
ENCODING 206
SWIDTH 264 0
DWIDTH 11 0
BBX 14 39 -2 0
BITMAP
0780
0FC0
1FE0
3EF0
7CF8
F87C
0000
0000
0780
0780
0780
0780
0780
0780
0780
0780
0780
0780
0780
0780
0780
0780
0780
0780
0780
0780
0780
0780
0780
0780
0780
0780
0780
0780
0780
0780
0780
0780
0780
ENDCHAR
STARTCHAR 00CF
ENCODING 207
SWIDTH 264 0
DWIDTH 11 0
BBX 10 38 0 0
BITMAP
F3C0
F3C0
F3C0
F3C0
F3C0
0000
0000
1E00
1E00
1E00
1E00
1E00
1E00
1E00
1E00
1E00
1E00
1E00
1E00
1E00
1E00
1E00
1E00
1E00
1E00
1E00
1E00
1E00
1E00
1E00
1E00
1E00
1E00
1E00
1E00
1E00
1E00
1E00
ENDCHAR
STARTCHAR 00D0
ENCODING 208
SWIDTH 744 0
DWIDTH 31 0
BBX 27 31 0 0
BITMAP
1FFF8000
1FFFE000
1FFFF800
1FFFFC00
1E01FE00
1E003F00
1E001F00
1E000F80
1E000780
1E0007C0
1E0003C0
1E0003C0
1E0001E0
1E0001E0
FFFE01E0
FFFE01E0
FFFE01E0
FFFE01E0
1E0001E0
1E0001E0
1E0003C0
1E0003C0
1E0007C0
1E000780
1E000F80
1E003F00
1E01FF00
1FFFFE00
1FFFF800
1FFFE000
1FFF8000
ENDCHAR
STARTCHAR 00D1
ENCODING 209
SWIDTH 744 0
DWIDTH 31 0
BBX 24 37 3 0
BITMAP
03F060
0FFFE0
07FFF0
020FC0
000000
000000
F8000F
F8000F
FC000F
FE000F
FE000F
FF000F
FF800F
FF800F
F7C00F
F3E00F
F3E00F
F1F00F
F0F80F
F0F80F
F07C0F
F03E0F
F03E0F
F01F0F
F00F8F
F00F8F
F007CF
F003EF
F003EF
F001FF
F000FF
F000FF
F0007F
F0003F
F0003F
F0001F
F0000F
ENDCHAR
STARTCHAR 00D2
ENCODING 210
SWIDTH 840 0
DWIDTH 35 0
BBX 31 41 2 0
BITMAP
00300000
003C0000
007F0000
003FC000
000FF000
0003F000
0000E000
00006000
00000000
000FE000
007FFC00
01FFFF00
03FFFF80
07F01FC0
0FC007E0
1F0001F0
3E0000F8
3C0000F8
7C00007C
7800003C
7800003C
F800003E
F000001E
F000001E
F000001E
F000001E
F000001E
F000001E
F800001E
7800003C
7800003C
7C00007C
3E000078
3E0000F8
1F0001F0
0FC007E0
07F01FC0
03FFFF80
01FFFF00
007FFC00
000FE000
ENDCHAR
STARTCHAR 00D3
ENCODING 211
SWIDTH 840 0
DWIDTH 35 0
BBX 31 41 2 -1
BITMAP
00001000
00007800
0000FC00
0003F800
000FE000
001F8000
000F0000
000C0000
00000000
000FF000
007FFC00
01FFFF00
03FFFF80
07F01FC0
0FC007E0
1F0001F0
3E0000F8
3E000078
7C00007C
7800003C
7800003C
F800003E
F000001E
F000001E
F000001E
F000001E
F000001E
F000001E
F800001E
7800003C
7800003C
7C00007C
3E000078
3E0000F8
1F0001F0
0FC007E0
07F01FC0
03FFFF80
01FFFF00
007FFC00
000FE000
ENDCHAR
STARTCHAR 00D4
ENCODING 212
SWIDTH 840 0
DWIDTH 35 0
BBX 31 40 2 -1
BITMAP
0007C000
000FE000
001FF000
003EF800
007C7C00
00F83E00
00000000
00000000
000FE000
007FFC00
01FFFF00
03FFFF80
07F01FC0
0FC007E0
1F0001F0
3E0000F8
3E000078
7C00007C
7800003C
7800003C
F800003E
F000001E
F000001E
F000001E
F000001E
F000001E
F000001E
F800001E
7800003C
7800003C
7C00007C
3E000078
3E0000F8
1F0001F0
0FC007E0
07F01FC0
03FFFF80
01FFFF00
007FFC00
000FE000
ENDCHAR
STARTCHAR 00D5
ENCODING 213
SWIDTH 840 0
DWIDTH 35 0
BBX 31 38 2 -1
BITMAP
003E0C00
00FFFC00
007FFE00
0060F800
00000000
00000000
000FE000
007FFC00
01FFFF00
03FFFF80
07F01FC0
0FC007E0
1F0001F0
3E0000F8
3C0000F8
7C00007C
7800003C
7800003C
F800003E
F000001E
F000001E
F000001E
F000001E
F000001E
F000001E
F800001E
7800003C
7800003C
7C00007C
3E000078
3E0000F8
1F0001F0
0FC007E0
07F01FC0
03FFFF80
01FFFF00
007FFC00
000FE000
ENDCHAR
STARTCHAR 00D6
ENCODING 214
SWIDTH 840 0
DWIDTH 35 0
BBX 31 39 2 -1
BITMAP
003CF000
003CF000
003CF000
003CF000
003CF000
00000000
00000000
001FE000
007FFC00
01FFFF00
03FFFF80
07F03FC0
0FC007E0
1F0003F0
3E0000F8
3C0000F8
7C00007C
7800003C
7800003C
F800003E
F000001E
F000001E
F000001E
F000001E
F000001E
F000001E
F800001E
7800003C
7800003C
7C00007C
3C0000F8
3E0000F8
1F0001F0
0FC007E0
07F01FC0
03FFFF80
01FFFF00
007FFC00
001FE000
ENDCHAR
STARTCHAR 00D7
ENCODING 215
SWIDTH 600 0
DWIDTH 25 0
BBX 20 20 2 1
BITMAP
100080
3801C0
7C03E0
FE07F0
7F0FE0
3F9F80
1FFF00
0FFE00
07FC00
03F800
03F800
07FC00
0FFF00
1F9F80
3F1FC0
7E0FE0
FC07F0
7C03E0
3801C0
100080
ENDCHAR
STARTCHAR 00D8
ENCODING 216
SWIDTH 840 0
DWIDTH 35 0
BBX 31 36 2 -4
BITMAP
00000020
00000070
000FF0F8
007FFEF8
01FFFFF0
03FFFFE0
07F01FE0
0FC007F0
1F000FF0
3E001FF8
3E001FF8
7C003E7C
78007C3C
7800F83C
F800F83E
F001F01E
F003E01E
F007E01E
F007C01E
F00F801E
F01F001E
F81F001E
783E003C
787C003C
7CFC007C
3EF80078
3FF000F8
1FF001F0
0FE007E0
0FF01FC0
0FFFFF80
1FFFFF00
1FFFFC00
3E1FE000
1C000000
08000000
ENDCHAR
STARTCHAR 00D9
ENCODING 217
SWIDTH 648 0
DWIDTH 27 0
BBX 20 42 3 -1
BITMAP
080000
0E0000
1F8000
0FE000
07F800
01FC00
007800
003000
000000
000000
F000F0
F000F0
F000F0
F000F0
F000F0
F000F0
F000F0
F000F0
F000F0
F000F0
F000F0
F000F0
F000F0
F000F0
F000F0
F000F0
F000F0
F000F0
F000F0
F000F0
F000F0
F000F0
F000F0
F000F0
F801F0
7801E0
7C03E0
3F07C0
3FFFC0
1FFF80
07FE00
01F800
ENDCHAR
STARTCHAR 00DA
ENCODING 218
SWIDTH 648 0
DWIDTH 27 0
BBX 20 41 3 -1
BITMAP
000100
000780
001FC0
007F80
01FE00
03F800
01E000
008000
000000
F000F0
F000F0
F000F0
F000F0
F000F0
F000F0
F000F0
F000F0
F000F0
F000F0
F000F0
F000F0
F000F0
F000F0
F000F0
F000F0
F000F0
F000F0
F000F0
F000F0
F000F0
F000F0
F000F0
F000F0
F801F0
7801E0
7C03E0
3F07C0
3FFFC0
1FFF80
07FE00
01F800
ENDCHAR
STARTCHAR 00DB
ENCODING 219
SWIDTH 648 0
DWIDTH 27 0
BBX 19 40 3 -1
BITMAP
01F000
03F800
07FC00
0FBE00
1F1F00
3E0F80
000000
000000
F001E0
F001E0
F001E0
F001E0
F001E0
F001E0
F001E0
F001E0
F001E0
F001E0
F001E0
F001E0
F001E0
F001E0
F001E0
F001E0
F001E0
F001E0
F001E0
F001E0
F001E0
F001E0
F001E0
F001E0
F801E0
7803C0
7C07C0
3E0FC0
3FFF80
1FFF00
0FFE00
03F000
ENDCHAR
STARTCHAR 00DC
ENCODING 220
SWIDTH 648 0
DWIDTH 27 0
BBX 20 39 3 -1
BITMAP
079E00
079E00
079E00
079E00
079E00
000000
000000
F000F0
F000F0
F000F0
F000F0
F000F0
F000F0
F000F0
F000F0
F000F0
F000F0
F000F0
F000F0
F000F0
F000F0
F000F0
F000F0
F000F0
F000F0
F000F0
F000F0
F000F0
F000F0
F000F0
F000F0
F801F0
7801E0
7C03E0
3F07C0
3FFFC0
1FFF80
07FE00
01F800
ENDCHAR
STARTCHAR 00DD
ENCODING 221
SWIDTH 600 0
DWIDTH 25 0
BBX 22 40 2 0
BITMAP
000180
000380
000FC0
003F80
007F00
00FC00
00F000
004000
000000
F8007C
F8007C
7C00F8
7C00F8
3E01F0
3E01F0
1E01E0
1F03E0
0F03C0
0F87C0
078780
07CF80
03CF00
03FF00
03FE00
01FE00
01FE00
00FC00
00FC00
007800
007800
007800
007800
007800
007800
007800
007800
007800
007800
007800
007800
ENDCHAR
STARTCHAR 00DE
ENCODING 222
SWIDTH 552 0
DWIDTH 23 0
BBX 19 31 3 0
BITMAP
F00000
F00000
F00000
F00000
F00000
F00000
FFF000
FFFE00
FFFF00
FFFF80
F00FC0
F007C0
F003E0
F001E0
F001E0
F001E0
F001E0
F001E0
F003E0
F007C0
F00FC0
FFFF80
FFFF00
FFFE00
FFF000
F00000
F00000
F00000
F00000
F00000
F00000
ENDCHAR
STARTCHAR 00DF
ENCODING 223
SWIDTH 648 0
DWIDTH 27 0
BBX 21 32 3 -1
BITMAP
03E000
0FF800
1FFC00
3FFE00
7C1F00
780F00
F80F80
F00780
F00780
F00780
F00780
F00F00
F01F00
F0FE00
F0FF80
F0FFE0
F0FFE0
F003F0
F001F0
F000F8
F00078
F00078
F00078
FE0078
FF0078
FF00F0
FF81F0
F7C3F0
F7FFE0
F3FFC0
F1FF80
007E00
ENDCHAR
STARTCHAR 00E0
ENCODING 224
SWIDTH 696 0
DWIDTH 29 0
BBX 23 35 2 0
BITMAP
018000
01E000
03F000
01FC00
007F00
003F00
000F00
000200
000000
000000
00FE00
03FF9E
0FFFDE
1FFFFE
1F83FE
3E00FE
7C007E
78003E
78003E
F8001E
F0001E
F0001E
F0001E
F0001E
F0001E
F8001E
78003E
7C003E
7C007E
3E00FE
3F83FE
1FFFDE
0FFFDE
03FF1E
00FC00
ENDCHAR
STARTCHAR 00E1
ENCODING 225
SWIDTH 696 0
DWIDTH 29 0
BBX 23 34 2 -1
BITMAP
000080
0003C0
0007E0
001FC0
007F00
00FC00
007800
006000
000000
007E00
03FF9E
07FFDE
0FFFFE
1F83FE
3E00FE
3C007E
7C003E
78003E
F8001E
F0001E
F0001E
F0001E
F0001E
F0001E
F8001E
78003E
7C003E
7C007E
3E00FE
1F83FE
1FFFFE
07FFDE
03FF9E
00FE00
ENDCHAR
STARTCHAR 00E2
ENCODING 226
SWIDTH 696 0
DWIDTH 29 0
BBX 23 33 2 -1
BITMAP
007C00
00FE00
01FF00
03EF80
07C7C0
0F83E0
000000
000000
00FC00
03FF9E
0FFFDE
1FFFFE
1F83FE
3E00FE
7C007E
78003E
78003E
F0001E
F0001E
F0001E
F0001E
F0001E
F0001E
F8001E
78003E
78003E
7C007E
3E00FE
3F83FE
1FFFDE
0FFFDE
03FF1E
00FC00
ENDCHAR
STARTCHAR 00E3
ENCODING 227
SWIDTH 696 0
DWIDTH 29 0
BBX 24 32 2 -1
BITMAP
01F060
07FFE0
07FFF0
03BFE0
000000
000000
000000
007E00
03FFCF
07FFEF
0FFFFF
1F81FF
3E007F
3C003F
7C001F
78001F
F8000F
F0000F
F0000F
F0000F
F0000F
F0000F
F8000F
78001F
7C001F
7C003F
3F007F
1F81FF
1FFFEF
07FFEF
03FF8F
00FE00
ENDCHAR
STARTCHAR 00E4
ENCODING 228
SWIDTH 696 0
DWIDTH 29 0
BBX 23 32 2 -1
BITMAP
01E780
01E780
01E780
01E780
01E780
000000
000000
00FE00
03FF9E
0FFFDE
1FFFFE
1F83FE
3E00FE
7C007E
78003E
78003E
F8001E
F0001E
F0001E
F0001E
F0001E
F0001E
F8001E
78003E
7C003E
7C007E
3E00FE
3F83FE
1FFFDE
0FFFDE
03FF1E
00FC00
ENDCHAR
STARTCHAR 00E5
ENCODING 229
SWIDTH 696 0
DWIDTH 29 0
BBX 23 35 2 0
BITMAP
003C00
007E00
00E700
00C300
00C300
00C300
00E700
007E00
003C00
000000
00FE00
03FF9E
0FFFDE
1FFFFE
1F83FE
3E00FE
7C007E
78003E
78003E
F8001E
F0001E
F0001E
F0001E
F0001E
F0001E
F8001E
78003E
7C003E
7C007E
3E00FE
3F83FE
1FFFDE
0FFFDE
03FF1E
00FC00
ENDCHAR
STARTCHAR 00E6
ENCODING 230
SWIDTH 1128 0
DWIDTH 47 0
BBX 42 25 2 -1
BITMAP
00FE000FC000
03FF9E7FF000
0FFFDEFFFC00
1FFFFFFFFE00
3F83FFF07F00
3E00FFC01F00
7C007F800F80
78003F000780
78003F0003C0
F0001E0003C0
F0001E0003C0
F0001FFFFFC0
F0001FFFFFC0
F0001FFFFFC0
F0001E000000
F8003E000000
78003F000000
7C003F000780
3C007F800F80
3E00FFC01F00
1F83FFF07E00
0FFFFFFFFE00
07FFDEFFF800
03FF9E7FF000
00FE001FC000
ENDCHAR
STARTCHAR 00E7
ENCODING 231
SWIDTH 624 0
DWIDTH 26 0
BBX 22 34 2 -11
BITMAP
00FE00
03FF80
0FFFE0
1FFFF0
3F83F8
3E00F8
7C007C
78007C
780000
F00000
F00000
F00000
F00000
F00000
F00000
F80000
78007C
7C007C
3E00F8
3F83F8
1FFFF0
0FFFE0
07FF80
00FE00
006000
006000
006000
007C00
007E00
000E00
000600
01CE00
00FC00
007800
ENDCHAR
STARTCHAR 00E8
ENCODING 232
SWIDTH 648 0
DWIDTH 27 0
BBX 22 35 2 0
BITMAP
030000
03C000
07E000
03F800
00FE00
007E00
001E00
000400
000000
000000
00FC00
03FF80
0FFFC0
1FFFE0
1F83F0
3E01F0
7C00F8
780078
78003C
F0003C
F0003C
FFFFFC
FFFFFC
FFFFFC
F00000
F00000
780000
780078
7C00F8
3E01F0
1F83E0
1FFFE0
07FFC0
03FF00
00FC00
ENDCHAR
STARTCHAR 00E9
ENCODING 233
SWIDTH 648 0
DWIDTH 27 0
BBX 22 34 2 -1
BITMAP
000100
000780
001FC0
007F80
00FE00
01F800
01E000
008000
000000
00FE00
03FF80
07FFC0
1FFFE0
1F83F0
3E01F0
7C00F8
780078
78003C
F0003C
F0003C
FFFFFC
FFFFFC
FFFFFC
F00000
F00000
780000
7C0038
7C0078
3E00F0
1F83F0
0FFFE0
07FFC0
03FF00
00FC00
ENDCHAR
STARTCHAR 00EA
ENCODING 234
SWIDTH 648 0
DWIDTH 27 0
BBX 23 33 2 -1
BITMAP
007C00
00FE00
01FF00
03EF80
07C7C0
0F83E0
000000
000000
00FE00
03FF80
07FFE0
1FFFF0
1F83F8
3E00F8
7C007C
78003C
78003E
F0001E
F0001E
FFFFFE
FFFFFE
FFFFFE
F00000
F00000
780000
7C003C
7C007C
3E00F8
1F83F0
0FFFE0
07FFC0
03FF80
00FE00
ENDCHAR
STARTCHAR 00EB
ENCODING 235
SWIDTH 648 0
DWIDTH 27 0
BBX 22 32 2 -1
BITMAP
03CF00
03CF00
03CF00
03CF00
03CF00
000000
000000
00FC00
03FF00
0FFFC0
1FFFE0
3F87F0
3E01F0
7C00F8
780078
78003C
F0003C
F0003C
FFFFFC
FFFFFC
FFFFFC
F00000
F00000
780000
780078
7C00F8
3E01F0
1F83E0
1FFFE0
0FFFC0
03FF00
00FC00
ENDCHAR
STARTCHAR 00EC
ENCODING 236
SWIDTH 240 0
DWIDTH 10 0
BBX 11 33 -3 1
BITMAP
7000
FC00
FF00
3F80
0FE0
07C0
01C0
0000
0000
0000
03C0
03C0
03C0
03C0
03C0
03C0
03C0
03C0
03C0
03C0
03C0
03C0
03C0
03C0
03C0
03C0
03C0
03C0
03C0
03C0
03C0
03C0
03C0
ENDCHAR
STARTCHAR 00ED
ENCODING 237
SWIDTH 240 0
DWIDTH 10 0
BBX 11 33 2 0
BITMAP
0080
03C0
07E0
1FC0
7F00
FE00
7800
2000
0000
0000
7800
7800
7800
7800
7800
7800
7800
7800
7800
7800
7800
7800
7800
7800
7800
7800
7800
7800
7800
7800
7800
7800
7800
ENDCHAR
STARTCHAR 00EE
ENCODING 238
SWIDTH 240 0
DWIDTH 10 0
BBX 15 32 -3 0
BITMAP
0780
0FC0
1FE0
3EF0
7CFC
F87E
0000
0000
0000
0780
0780
0780
0780
0780
0780
0780
0780
0780
0780
0780
0780
0780
0780
0780
0780
0780
0780
0780
0780
0780
0780
0780
ENDCHAR
STARTCHAR 00EF
ENCODING 239
SWIDTH 240 0
DWIDTH 10 0
BBX 10 31 0 0
BITMAP
F3C0
F3C0
F3C0
F3C0
F3C0
0000
0000
0000
1E00
1E00
1E00
1E00
1E00
1E00
1E00
1E00
1E00
1E00
1E00
1E00
1E00
1E00
1E00
1E00
1E00
1E00
1E00
1E00
1E00
1E00
1E00
ENDCHAR
STARTCHAR 00F0
ENCODING 240
SWIDTH 672 0
DWIDTH 28 0
BBX 24 32 2 -1
BITMAP
01C0C0
1FFFF0
03FFE0
03FF00
1FFFC0
1F87E0
0C03E0
007FF0
03FFF8
07FFFC
0FFFFC
1F81FE
3E007E
7C003E
7C001F
78001F
F8000F
F0000F
F0000F
F0000F
F0000F
F0000F
F8001F
78001E
7C001E
3C003C
3F007C
1F81F8
0FFFF0
07FFE0
03FFC0
00FE00
ENDCHAR
STARTCHAR 00F1
ENCODING 241
SWIDTH 624 0
DWIDTH 26 0
BBX 19 31 3 0
BITMAP
0F8200
1FFF00
1FFF80
0FFF00
000800
000000
000000
01F800
F3FE00
F7FF00
FFFF80
FE0FC0
FC07C0
F803E0
F801E0
F001E0
F001E0
F001E0
F001E0
F001E0
F001E0
F001E0
F001E0
F001E0
F001E0
F001E0
F001E0
F001E0
F001E0
F001E0
F001E0
ENDCHAR
STARTCHAR 00F2
ENCODING 242
SWIDTH 672 0
DWIDTH 28 0
BBX 24 35 2 0
BITMAP
018000
01E000
03F000
01FC00
007F00
003F00
000F00
000200
000000
000000
007F00
03FFC0
07FFE0
0FFFF0
1F81F8
3F007C
3C003E
7C001E
78001E
F8001F
F0000F
F0000F
F0000F
F0000F
F0000F
F8000F
78001E
7C001E
3C003C
3F007C
1F81F8
0FFFF0
07FFE0
03FFC0
007E00
ENDCHAR
STARTCHAR 00F3
ENCODING 243
SWIDTH 672 0
DWIDTH 28 0
BBX 24 34 2 -1
BITMAP
000180
000380
000FC0
003F80
00FF00
00FC00
00F000
004000
000000
007E00
03FFC0
07FFE0
0FFFF0
1F81F8
3E00FC
3C003E
7C003E
78001E
F8001F
F0000F
F0000F
F0000F
F0000F
F0000F
F8001F
78001E
7C003E
3C003C
3E007C
1F81F8
0FFFF0
07FFE0
03FFC0
00FE00
ENDCHAR
STARTCHAR 00F4
ENCODING 244
SWIDTH 672 0
DWIDTH 28 0
BBX 24 33 2 -1
BITMAP
007C00
00FE00
01FF00
03EF80
07C7C0
0F83E0
000000
000000
00FE00
03FFC0
07FFE0
0FFFF0
1F83F8
3E00FC
7C003E
78003E
78001E
F8001F
F0000F
F0000F
F0000F
F0000F
F0000F
F8001F
78001E
7C003E
3C003C
3E00FC
1F83F8
0FFFF0
07FFE0
03FF80
00FE00
ENDCHAR
STARTCHAR 00F5
ENCODING 245
SWIDTH 672 0
DWIDTH 28 0
BBX 24 32 2 -1
BITMAP
03E0C0
07FFC0
07FFE0
03BFC0
000200
000000
000000
007E00
03FFC0
07FFE0
0FFFF0
1F81F8
3E00FC
7C003E
7C003E
78001E
F8001F
F0000F
F0000F
F0000F
F0000F
F0000F
F8001F
78001E
7C003E
3C003C
3E00FC
1F81F8
0FFFF0
07FFE0
03FFC0
00FE00
ENDCHAR
STARTCHAR 00F6
ENCODING 246
SWIDTH 672 0
DWIDTH 28 0
BBX 24 32 2 -1
BITMAP
01E780
01E780
01E780
01E780
01E780
000000
000000
007E00
03FFC0
07FFE0
0FFFF0
1F81F8
3E007C
3C003E
7C003E
78001E
F8001F
F0000F
F0000F
F0000F
F0000F
F0000F
F8001F
78001E
7C001E
3C003C
3F007C
1F81F8
0FFFF0
07FFE0
03FFC0
007E00
ENDCHAR
STARTCHAR 00F7
ENCODING 247
SWIDTH 600 0
DWIDTH 25 0
BBX 20 21 2 0
BITMAP
00F000
00F000
00F000
00F000
000000
000000
000000
000000
000000
FFFFF0
FFFFF0
FFFFF0
FFFFF0
000000
000000
000000
000000
00F000
00F000
00F000
00F000
ENDCHAR
STARTCHAR 00F8
ENCODING 248
SWIDTH 672 0
DWIDTH 28 0
BBX 24 29 2 -3
BITMAP
000030
000038
007F7C
03FFF8
07FFF8
0FFFF8
1F81F8
3E03FC
3C07FE
7C07BE
780F9E
F80F1F
F01F0F
F03E0F
F03C0F
F07C0F
F0F80F
F8F01F
79F01E
7DE01E
7FE03C
3FC07C
1F81F8
1FFFF0
1FFFE0
1FFFC0
3E7E00
3C0000
080000
ENDCHAR
STARTCHAR 00F9
ENCODING 249
SWIDTH 624 0
DWIDTH 26 0
BBX 20 35 3 -1
BITMAP
080000
0E0000
1F8000
1FC000
07F000
01FC00
00F800
003800
000000
000000
000000
F000F0
F000F0
F000F0
F000F0
F000F0
F000F0
F000F0
F000F0
F000F0
F000F0
F000F0
F000F0
F000F0
F000F0
F000F0
F000F0
F801F0
7801F0
7C03F0
7E07F0
3FFFF0
1FFFF0
0FFCF0
03F000
ENDCHAR
STARTCHAR 00FA
ENCODING 250
SWIDTH 624 0
DWIDTH 26 0
BBX 19 34 3 -1
BITMAP
000200
000F00
003F80
007F00
01FC00
03F800
01E000
018000
000000
000000
F001E0
F001E0
F001E0
F001E0
F001E0
F001E0
F001E0
F001E0
F001E0
F001E0
F001E0
F001E0
F001E0
F001E0
F001E0
F001E0
F803E0
7803E0
7C07E0
7E0FE0
3FFFE0
1FFFE0
0FFDE0
03F000
ENDCHAR
STARTCHAR 00FB
ENCODING 251
SWIDTH 624 0
DWIDTH 26 0
BBX 19 33 3 -1
BITMAP
01F000
03F800
07FC00
0FBE00
1F1F00
3E0F80
000000
000000
000000
F001E0
F001E0
F001E0
F001E0
F001E0
F001E0
F001E0
F001E0
F001E0
F001E0
F001E0
F001E0
F001E0
F001E0
F001E0
F001E0
F803E0
7803E0
7C07E0
7E0FE0
3FFFE0
1FFFE0
0FFDE0
03F000
ENDCHAR
STARTCHAR 00FC
ENCODING 252
SWIDTH 624 0
DWIDTH 26 0
BBX 20 32 3 -1
BITMAP
0F1E00
0F1E00
0F1E00
0F1E00
0F1E00
000000
000000
000000
F000F0
F000F0
F000F0
F000F0
F000F0
F000F0
F000F0
F000F0
F000F0
F000F0
F000F0
F000F0
F000F0
F000F0
F000F0
F000F0
F801F0
7801F0
7C03F0
7E0FF0
3FFFF0
1FFEF0
0FFCF0
03F000
ENDCHAR
STARTCHAR 00FD
ENCODING 253
SWIDTH 576 0
DWIDTH 24 0
BBX 23 41 0 -8
BITMAP
000080
0003C0
0007E0
001FC0
007F00
00FC00
007800
006000
000000
000000
F8003E
78003C
7C007C
7C007C
3C0078
3E00F8
1E00F0
1F00F0
1F01F0
0F01E0
0F83E0
0783C0
0783C0
07C780
03C780
03EF80
01EF00
01EF00
01FE00
00FE00
00FE00
007C00
007C00
007800
00F800
00F800
00F000
01F000
01E000
03E000
03E000
ENDCHAR
STARTCHAR 00FE
ENCODING 254
SWIDTH 696 0
DWIDTH 29 0
BBX 23 39 3 -8
BITMAP
F00000
F00000
F00000
F00000
F00000
F00000
F00000
F07E00
F3FF80
F7FFE0
FFFFF0
FF83F8
FE00F8
FC007C
F8007C
F8003C
F8003E
F0001E
F0001E
F0001E
F0001E
F0001E
F8001E
F8003E
F8003C
FC007C
FE00F8
FF83F8
FFFFF0
F7FFE0
F3FF80
F07E00
F00000
F00000
F00000
F00000
F00000
F00000
F00000
ENDCHAR
STARTCHAR 00FF
ENCODING 255
SWIDTH 576 0
DWIDTH 24 0
BBX 23 39 0 -8
BITMAP
03C780
03C780
03C780
03C780
03C780
000000
000000
000000
F8003E
78003C
7C007C
7C007C
3C0078
3E00F8
1E00F0
1E01F0
1F01E0
0F01E0
0F83E0
0783C0
0783C0
07C780
03C780
03CF00
01EF00
01EF00
01FE00
00FE00
00FC00
007C00
007800
007800
00F800
00F000
00F000
01E000
01E000
03E000
03C000
ENDCHAR
STARTCHAR 0131
ENCODING 305
SWIDTH 240 0
DWIDTH 10 0
BBX 4 23 3 0
BITMAP
F0
F0
F0
F0
F0
F0
F0
F0
F0
F0
F0
F0
F0
F0
F0
F0
F0
F0
F0
F0
F0
F0
F0
ENDCHAR
STARTCHAR 0141
ENCODING 321
SWIDTH 456 0
DWIDTH 19 0
BBX 18 31 0 0
BITMAP
1E0000
1E0000
1E0000
1E0000
1E0000
1E0000
1E0000
1E1800
1E3800
1E7800
1FF800
1FF000
1FE000
1FC000
3F0000
7E0000
FE0000
FE0000
FE0000
9E0000
1E0000
1E0000
1E0000
1E0000
1E0000
1E0000
1E0000
1FFFC0
1FFFC0
1FFFC0
1FFFC0
ENDCHAR
STARTCHAR 0142
ENCODING 322
SWIDTH 288 0
DWIDTH 12 0
BBX 10 31 1 0
BITMAP
1E00
1E00
1E00
1E00
1E00
1E00
1E00
1E00
1E00
1E40
1FC0
1FC0
1FC0
1F80
3F00
FE00
FE00
FE00
DE00
9E00
1E00
1E00
1E00
1E00
1E00
1E00
1E00
1E00
1E00
1E00
1E00
ENDCHAR
STARTCHAR 0152
ENCODING 338
SWIDTH 1104 0
DWIDTH 46 0
BBX 40 32 2 -1
BITMAP
001FE03FFF
007FFC3FFF
01FFFF3FFF
03FFFFBFFF
07F03FFC00
0FC00FFC00
1F0003FC00
3E0001FC00
3C0000FC00
7C0000FC00
7800007C00
7800007C00
7800007C00
F000003C00
F000003FFF
F000003FFF
F000003FFF
F000003FFF
F000003C00
F000003C00
7800007C00
7800007C00
7C0000FC00
3C0000FC00
3E0001FC00
1F0003FC00
1FC007FC00
0FF03FBFFF
07FFFF3FFF
01FFFE3FFF
00FFFC3FFF
001FE00000
ENDCHAR
STARTCHAR 0153
ENCODING 339
SWIDTH 1152 0
DWIDTH 48 0
BBX 43 25 2 -1
BITMAP
007E000FE000
03FFC03FF800
07FFE0FFFE00
0FFFF1FFFF00
1F81F9F83F80
3E00FFE00F80
7C003FC007C0
78003F8003C0
78001F8003E0
F0001F0001E0
F0000F0001E0
F0000FFFFFE0
F0000FFFFFE0
F0000FFFFFE0
F0000F000000
F8001F000000
78001F800000
7C003F8003C0
3C007FC007C0
3F00FFE00F80
1F83F9F83F00
0FFFF0FFFF00
07FFE07FFC00
03FFC03FF800
007E000FE000
ENDCHAR
STARTCHAR 0160
ENCODING 352
SWIDTH 504 0
DWIDTH 21 0
BBX 18 40 1 -1
BITMAP
3E0F80
1F1F00
0FBE00
07FC00
03F800
01F000
000000
000000
01F800
07FE00
1FFF00
1FFF80
3E0F80
3C07C0
7803C0
7803C0
7803C0
780000
7C0000
7E0000
3F8000
3FF000
1FFC00
07FE00
03FF00
007F80
001F80
0007C0
0007C0
0003C0
F003C0
F003C0
F003C0
F807C0
7C0780
7E0F80
3FFF00
1FFF00
0FFC00
03F000
ENDCHAR
STARTCHAR 0161
ENCODING 353
SWIDTH 432 0
DWIDTH 18 0
BBX 15 33 1 -1
BITMAP
F83E
7C7C
3EF8
1FF0
0FE0
07C0
0000
0000
07C0
0FF0
1FF8
3FF8
7C7C
783C
783C
7800
7C00
7F00
3FE0
1FF0
0FF8
03FC
00FE
003E
001E
F01E
F01E
F81E
7C3C
7FFC
3FF8
1FF0
07C0
ENDCHAR
STARTCHAR 0178
ENCODING 376
SWIDTH 600 0
DWIDTH 25 0
BBX 22 38 1 0
BITMAP
03CF00
03CF00
03CF00
03CF00
03CF00
000000
000000
F8007C
F8007C
7C00F8
7C00F8
3E01F0
3E01F0
1F01E0
1F03E0
0F03C0
0F87C0
078780
07CF80
03CF00
03FF00
03FE00
01FE00
01FE00
00FC00
00FC00
007800
007800
007800
007800
007800
007800
007800
007800
007800
007800
007800
007800
ENDCHAR
STARTCHAR 017D
ENCODING 381
SWIDTH 456 0
DWIDTH 19 0
BBX 19 39 0 0
BITMAP
1F07C0
0F8F80
07DF00
03FE00
01FC00
00F800
000000
000000
7FFFC0
7FFFC0
7FFFC0
7FFFC0
0007C0
000780
000F80
001F00
001F00
003E00
003C00
007C00
00F800
00F800
01F000
01F000
03E000
03C000
07C000
0F8000
0F8000
1F0000
1F0000
3E0000
7C0000
7C0000
F80000
FFFFE0
FFFFE0
FFFFE0
FFFFE0
ENDCHAR
STARTCHAR 017E
ENCODING 382
SWIDTH 408 0
DWIDTH 17 0
BBX 16 32 0 0
BITMAP
7C1F
3E3E
1F7C
0FF8
07F0
03E0
0000
0000
0000
7FFE
7FFE
7FFE
7FFE
003E
003C
007C
00F8
00F0
01F0
03E0
03C0
07C0
0F80
1F00
1F00
3E00
7C00
7C00
FFFF
FFFF
FFFF
FFFF
ENDCHAR
STARTCHAR 0192
ENCODING 402
SWIDTH 552 0
DWIDTH 23 0
BBX 21 42 1 -7
BITMAP
000038
0000F8
0001F8
0003F0
0007C0
000780
000F00
000F00
000F00
001E00
01FFE0
01FFE0
01FFE0
01FFE0
003E00
003C00
003C00
003C00
003C00
003C00
007800
007800
007800
007800
007800
007800
00F000
00F000
00F000
00F000
00F000
00F000
01E000
01E000
01E000
03E000
03C000
0FC000
7F8000
FF0000
FE0000
F80000
ENDCHAR
STARTCHAR 02C6
ENCODING 710
SWIDTH 552 0
DWIDTH 23 0
BBX 15 6 4 26
BITMAP
07C0
0FE0
1FF0
3EF8
7C7C
F83E
ENDCHAR
STARTCHAR 02C7
ENCODING 711
SWIDTH 552 0
DWIDTH 23 0
BBX 15 6 4 26
BITMAP
F83E
7C7C
3EF8
1FF0
0FE0
07C0
ENDCHAR
STARTCHAR 02D8
ENCODING 728
SWIDTH 552 0
DWIDTH 23 0
BBX 15 5 4 26
BITMAP
F00E
783C
7FFC
3FF8
0FE0
ENDCHAR
STARTCHAR 02D9
ENCODING 729
SWIDTH 552 0
DWIDTH 23 0
BBX 4 5 9 26
BITMAP
F0
F0
F0
F0
F0
ENDCHAR
STARTCHAR 02DA
ENCODING 730
SWIDTH 552 0
DWIDTH 23 0
BBX 9 9 7 26
BITMAP
3E00
7F00
E380
C180
C180
C180
E380
7F00
3C00
ENDCHAR
STARTCHAR 02DB
ENCODING 731
SWIDTH 552 0
DWIDTH 23 0
BBX 7 8 8 -7
BITMAP
38
70
E0
E0
F0
FE
7E
3E
ENDCHAR
STARTCHAR 02DC
ENCODING 732
SWIDTH 552 0
DWIDTH 23 0
BBX 15 5 4 26
BITMAP
3E0C
FFFC
7FFE
77FC
0020
ENDCHAR
STARTCHAR 02DD
ENCODING 733
SWIDTH 552 0
DWIDTH 23 0
BBX 16 6 4 26
BITMAP
0F9F
0F3E
1E7C
3C78
78F0
F1E0
ENDCHAR
STARTCHAR 2013
ENCODING 8211
SWIDTH 504 0
DWIDTH 21 0
BBX 18 4 1 10
BITMAP
FFFFC0
FFFFC0
FFFFC0
FFFFC0
ENDCHAR
STARTCHAR 2014
ENCODING 8212
SWIDTH 1008 0
DWIDTH 42 0
BBX 38 4 1 10
BITMAP
FFFFFFFFFC
FFFFFFFFFC
FFFFFFFFFC
FFFFFFFFFC
ENDCHAR
STARTCHAR 2018
ENCODING 8216
SWIDTH 288 0
DWIDTH 12 0
BBX 4 10 4 20
BITMAP
10
70
70
E0
E0
E0
F0
F0
F0
F0
ENDCHAR
STARTCHAR 2019
ENCODING 8217
SWIDTH 288 0
DWIDTH 12 0
BBX 4 10 4 20
BITMAP
F0
F0
F0
F0
F0
70
70
70
E0
C0
ENDCHAR
STARTCHAR 201A
ENCODING 8218
SWIDTH 288 0
DWIDTH 12 0
BBX 4 10 4 -5
BITMAP
F0
F0
F0
F0
F0
70
70
F0
E0
80
ENDCHAR
STARTCHAR 201C
ENCODING 8220
SWIDTH 432 0
DWIDTH 18 0
BBX 11 10 3 20
BITMAP
1020
70E0
70E0
E1C0
E1C0
E1C0
F1E0
F1E0
F1E0
F1E0
ENDCHAR
STARTCHAR 201D
ENCODING 8221
SWIDTH 432 0
DWIDTH 18 0
BBX 11 10 3 20
BITMAP
F1E0
F1E0
F1E0
F1E0
F1E0
70E0
70E0
70E0
E1C0
C180
ENDCHAR
STARTCHAR 201E
ENCODING 8222
SWIDTH 432 0
DWIDTH 18 0
BBX 11 10 3 -5
BITMAP
F1E0
F1E0
F1E0
F1E0
F1E0
70E0
70E0
F1E0
E1C0
8100
ENDCHAR
STARTCHAR 2020
ENCODING 8224
SWIDTH 576 0
DWIDTH 24 0
BBX 18 40 3 -9
BITMAP
01E000
01E000
01E000
01E000
01E000
01E000
01E000
01E000
FFFFC0
FFFFC0
FFFFC0
FFFFC0
01E000
01E000
01E000
01E000
01E000
01E000
01E000
01E000
01E000
01E000
01E000
01E000
01E000
01E000
01E000
01E000
01E000
01E000
01E000
01E000
01E000
01E000
01E000
01E000
01E000
01E000
01E000
01E000
ENDCHAR
STARTCHAR 2021
ENCODING 8225
SWIDTH 576 0
DWIDTH 24 0
BBX 18 40 3 -10
BITMAP
01E000
01E000
01E000
01E000
01E000
01E000
01E000
FFFFC0
FFFFC0
FFFFC0
FFFFC0
01E000
01E000
01E000
01E000
01E000
01E000
01E000
01E000
01E000
01E000
01E000
01E000
01E000
01E000
01E000
FFFFC0
FFFFC0
FFFFC0
FFFFC0
01E000
01E000
01E000
01E000
01E000
01E000
01E000
01E000
01E000
01E000
ENDCHAR
STARTCHAR 2022
ENCODING 8226
SWIDTH 600 0
DWIDTH 25 0
BBX 12 13 6 9
BITMAP
0F00
3FC0
7FE0
7FE0
FFF0
FFF0
FFF0
FFF0
FFF0
7FE0
7FE0
3FC0
0F00
ENDCHAR
STARTCHAR 2026
ENCODING 8230
SWIDTH 1008 0
DWIDTH 42 0
BBX 31 5 5 1
BITMAP
F007801E
F007801E
F007801E
F007801E
F007801E
ENDCHAR
STARTCHAR 2030
ENCODING 8240
SWIDTH 1224 0
DWIDTH 51 0
BBX 46 33 2 -1
BITMAP
07C001000000
1FF003000000
3FF806000000
7FFC06000000
7C7C0C000000
F83E0C000000
F01E18000000
F01E18000000
F01E30000000
F01E70000000
F83E60000000
7C7CE0000000
7FFCC0000000
3FF980000000
1FF180000000
07C300000000
000300000000
00060F800F80
000E3FE03FE0
000C7FF07FF0
001CFFF8FFF8
0018F8F8F8F8
0039F07DF07C
0031E03DE03C
0071E03DE03C
0061E03DE03C
00E1E03DE03C
00C1F07DF07C
0180F8F8F8F8
0380FFF8FFF8
03007FF07FF0
07003FE03FE0
00000F800F80
ENDCHAR
STARTCHAR 2039
ENCODING 8249
SWIDTH 216 0
DWIDTH 9 0
BBX 6 15 1 4
BITMAP
04
0C
1C
3C
7C
F8
F0
E0
F0
F8
7C
3C
1C
0C
04
ENDCHAR
STARTCHAR 203A
ENCODING 8250
SWIDTH 216 0
DWIDTH 9 0
BBX 6 15 1 5
BITMAP
80
C0
E0
F0
F8
7C
3C
1C
3C
7C
F8
F0
E0
C0
80
ENDCHAR
STARTCHAR 2044
ENCODING 8260
SWIDTH 192 0
DWIDTH 8 0
BBX 15 31 -3 0
BITMAP
000E
001C
001C
001C
0038
0038
0070
0070
0070
00E0
00E0
01C0
01C0
01C0
0380
0380
0700
0700
0600
0E00
0E00
1C00
1C00
3800
3800
3800
7000
7000
E000
E000
E000
ENDCHAR
STARTCHAR 2122
ENCODING 8482
SWIDTH 984 0
DWIDTH 41 0
BBX 37 17 0 12
BITMAP
FFFC7E01F8
FFFC7E01F8
FFFC7F03F8
07807F03F8
07807F87F8
07807F87F8
07807B8778
07807BCF78
07807BCF78
078079FE78
078079FE78
078079FE78
078078FC78
078078FC78
0780787878
0780787878
0780787878
ENDCHAR
STARTCHAR 2212
ENCODING 8722
SWIDTH 600 0
DWIDTH 25 0
BBX 21 4 2 8
BITMAP
FFFFF8
FFFFF8
FFFFF8
FFFFF8
ENDCHAR
STARTCHAR FB01
ENCODING 64257
SWIDTH 480 0
DWIDTH 20 0
BBX 16 31 1 0
BITMAP
03CF
0FCF
1FCF
1FCF
3E0F
3C00
3C00
3C00
FFFF
FFFF
FFFF
FFFF
3C0F
3C0F
3C0F
3C0F
3C0F
3C0F
3C0F
3C0F
3C0F
3C0F
3C0F
3C0F
3C0F
3C0F
3C0F
3C0F
3C0F
3C0F
3C0F
ENDCHAR
STARTCHAR FB02
ENCODING 64258
SWIDTH 480 0
DWIDTH 20 0
BBX 16 31 1 0
BITMAP
03CF
0FCF
1FCF
1FCF
3E0F
3C0F
3C0F
3C0F
FFFF
FFFF
FFFF
FFFF
3C0F
3C0F
3C0F
3C0F
3C0F
3C0F
3C0F
3C0F
3C0F
3C0F
3C0F
3C0F
3C0F
3C0F
3C0F
3C0F
3C0F
3C0F
3C0F
ENDCHAR
ENDFONT
